<svg width="128" height="98" viewBox="0 0 128 98" fill="none" xmlns="http://www.w3.org/2000/svg">
<path d="M9.49539 76.2346L46.5483 27.9316C56.9844 14.3269 76.6803 12.2211 89.7567 23.3121L98.1377 30.4206L48.6024 69.7335C43.2978 73.9434 36.725 76.2346 29.9529 76.2346L9.49539 76.2346Z" fill="#5806DC"/>
<path d="M69.6846 52.3075C71.5998 50.8162 95.6224 28.0109 97.8642 30.147C100.106 32.283 115.425 44.5725 116.468 45.7415C117.511 46.9104 124.676 57.5057 116.468 68.4492C105.251 80.2135 95.2712 72.5108 94.0339 71.4587C92.7967 70.4066 67.7695 53.7989 69.6846 52.3075Z" fill="#5806DC"/>
<path d="M64.7609 23.2219C66.6031 21.0356 69.9002 20.8363 71.9923 22.7848L91.8163 41.2485C93.519 42.8343 91.521 45.7172 89.4208 44.7158C81.9642 41.1607 73.6108 37.4719 71.0526 37.4719C67.4681 37.4719 54.2367 43.652 47.2541 47.0391C46.2749 47.5141 45.3234 46.2901 46.0247 45.4579L64.7609 23.2219Z" fill="white"/>
<path d="M74.0373 42.1228C72.4468 43.9053 69.6585 43.9053 68.068 42.1228L62.9969 36.4394H79.1084L74.0373 42.1228Z" fill="white"/>
<path d="M15.6815 93.0955V81.8955H20.5295C21.5322 81.8955 22.3962 82.0608 23.1215 82.3915C23.8468 82.7115 24.4068 83.1755 24.8015 83.7835C25.1962 84.3915 25.3935 85.1168 25.3935 85.9595C25.3935 86.7915 25.1962 87.5115 24.8015 88.1195C24.4068 88.7275 23.8468 89.1968 23.1215 89.5275C22.3962 89.8475 21.5322 90.0075 20.5295 90.0075H17.1215L18.2735 88.8395V93.0955H15.6815ZM18.2735 89.1275L17.1215 87.8955H20.3855C21.1855 87.8955 21.7828 87.7248 22.1775 87.3835C22.5722 87.0421 22.7695 86.5675 22.7695 85.9595C22.7695 85.3408 22.5722 84.8608 22.1775 84.5195C21.7828 84.1781 21.1855 84.0075 20.3855 84.0075H17.1215L18.2735 82.7755V89.1275ZM31.3244 93.2235C30.3431 93.2235 29.4791 93.0315 28.7324 92.6475C27.9964 92.2635 27.4257 91.7408 27.0204 91.0795C26.6151 90.4075 26.4124 89.6448 26.4124 88.7915C26.4124 87.9275 26.6097 87.1648 27.0044 86.5035C27.4097 85.8315 27.9591 85.3088 28.6524 84.9355C29.3457 84.5515 30.1297 84.3595 31.0044 84.3595C31.8471 84.3595 32.6044 84.5408 33.2764 84.9035C33.9591 85.2555 34.4977 85.7675 34.8924 86.4395C35.2871 87.1008 35.4844 87.8955 35.4844 88.8235C35.4844 88.9195 35.4791 89.0315 35.4684 89.1595C35.4577 89.2768 35.4471 89.3888 35.4364 89.4955H28.4444V88.0395H34.1244L33.1644 88.4715C33.1644 88.0235 33.0737 87.6341 32.8924 87.3035C32.7111 86.9728 32.4604 86.7168 32.1404 86.5355C31.8204 86.3435 31.4471 86.2475 31.0204 86.2475C30.5937 86.2475 30.2151 86.3435 29.8844 86.5355C29.5644 86.7168 29.3137 86.9781 29.1324 87.3195C28.9511 87.6501 28.8604 88.0448 28.8604 88.5035V88.8875C28.8604 89.3568 28.9617 89.7728 29.1644 90.1355C29.3777 90.4875 29.6711 90.7595 30.0444 90.9515C30.4284 91.1328 30.8764 91.2235 31.3884 91.2235C31.8471 91.2235 32.2471 91.1541 32.5884 91.0155C32.9404 90.8768 33.2604 90.6688 33.5484 90.3915L34.8764 91.8315C34.4817 92.2795 33.9857 92.6261 33.3884 92.8715C32.7911 93.1061 32.1031 93.2235 31.3244 93.2235ZM42.1918 93.0955V91.4155L42.0318 91.0475V88.0395C42.0318 87.5061 41.8664 87.0901 41.5358 86.7915C41.2158 86.4928 40.7198 86.3435 40.0478 86.3435C39.5891 86.3435 39.1358 86.4181 38.6878 86.5675C38.2504 86.7061 37.8771 86.8981 37.5678 87.1435L36.6718 85.3995C37.1411 85.0688 37.7064 84.8128 38.3678 84.6315C39.0291 84.4501 39.7011 84.3595 40.3838 84.3595C41.6958 84.3595 42.7144 84.6688 43.4398 85.2875C44.1651 85.9061 44.5278 86.8715 44.5278 88.1835V93.0955H42.1918ZM39.5678 93.2235C38.8958 93.2235 38.3198 93.1115 37.8398 92.8875C37.3598 92.6528 36.9918 92.3381 36.7358 91.9435C36.4798 91.5488 36.3518 91.1061 36.3518 90.6155C36.3518 90.1035 36.4744 89.6555 36.7198 89.2715C36.9758 88.8875 37.3758 88.5888 37.9198 88.3755C38.4638 88.1515 39.1731 88.0395 40.0478 88.0395H42.3358V89.4955H40.3198C39.7331 89.4955 39.3278 89.5915 39.1038 89.7835C38.8904 89.9755 38.7838 90.2155 38.7838 90.5035C38.7838 90.8235 38.9064 91.0795 39.1518 91.2715C39.4078 91.4528 39.7544 91.5435 40.1918 91.5435C40.6078 91.5435 40.9811 91.4475 41.3118 91.2555C41.6424 91.0528 41.8824 90.7595 42.0318 90.3755L42.4158 91.5275C42.2344 92.0821 41.9038 92.5035 41.4238 92.7915C40.9438 93.0795 40.3251 93.2235 39.5678 93.2235ZM48.8508 91.3355L48.9148 88.2955L52.9308 84.4875H55.9068L52.0508 88.4075L50.7548 89.4635L48.8508 91.3355ZM46.7868 93.0955V81.2235H49.2828V93.0955H46.7868ZM53.2028 93.0955L50.2908 89.4795L51.8588 87.5435L56.2268 93.0955H53.2028ZM62.0565 93.0955V81.8955H67.1445C68.3605 81.8955 69.4325 82.1301 70.3605 82.5995C71.2885 83.0581 72.0138 83.7035 72.5365 84.5355C73.0592 85.3675 73.3205 86.3541 73.3205 87.4955C73.3205 88.6261 73.0592 89.6128 72.5365 90.4555C72.0138 91.2875 71.2885 91.9381 70.3605 92.4075C69.4325 92.8661 68.3605 93.0955 67.1445 93.0955H62.0565ZM64.6485 90.9675H67.0165C67.7632 90.9675 68.4085 90.8288 68.9525 90.5515C69.5072 90.2635 69.9338 89.8581 70.2325 89.3355C70.5418 88.8128 70.6965 88.1995 70.6965 87.4955C70.6965 86.7808 70.5418 86.1675 70.2325 85.6555C69.9338 85.1328 69.5072 84.7328 68.9525 84.4555C68.4085 84.1675 67.7632 84.0235 67.0165 84.0235H64.6485V90.9675ZM75.0993 93.0955V84.4875H77.5953V93.0955H75.0993ZM76.3473 83.2875C75.8886 83.2875 75.5153 83.1541 75.2273 82.8875C74.9393 82.6208 74.7953 82.2901 74.7953 81.8955C74.7953 81.5008 74.9393 81.1701 75.2273 80.9035C75.5153 80.6368 75.8886 80.5035 76.3473 80.5035C76.8059 80.5035 77.1793 80.6315 77.4673 80.8875C77.7553 81.1328 77.8993 81.4528 77.8993 81.8475C77.8993 82.2635 77.7553 82.6101 77.4673 82.8875C77.1899 83.1541 76.8166 83.2875 76.3473 83.2875ZM83.9598 96.3275C83.1491 96.3275 82.3651 96.2261 81.6078 96.0235C80.8611 95.8315 80.2371 95.5381 79.7358 95.1435L80.7278 93.3515C81.0904 93.6501 81.5491 93.8848 82.1038 94.0555C82.6691 94.2368 83.2238 94.3275 83.7678 94.3275C84.6531 94.3275 85.2931 94.1301 85.6878 93.7355C86.0931 93.3408 86.2958 92.7541 86.2958 91.9755V90.6795L86.4558 88.5195L86.4238 86.3435V84.4875H88.7918V91.6555C88.7918 93.2555 88.3758 94.4341 87.5438 95.1915C86.7118 95.9488 85.5171 96.3275 83.9598 96.3275ZM83.5758 92.6795C82.7758 92.6795 82.0504 92.5088 81.3998 92.1675C80.7598 91.8155 80.2424 91.3301 79.8478 90.7115C79.4638 90.0821 79.2718 89.3515 79.2718 88.5195C79.2718 87.6768 79.4638 86.9461 79.8478 86.3275C80.2424 85.6981 80.7598 85.2128 81.3998 84.8715C82.0504 84.5301 82.7758 84.3595 83.5758 84.3595C84.3011 84.3595 84.9411 84.5088 85.4958 84.8075C86.0504 85.0955 86.4824 85.5488 86.7918 86.1675C87.1011 86.7755 87.2558 87.5595 87.2558 88.5195C87.2558 89.4688 87.1011 90.2528 86.7918 90.8715C86.4824 91.4795 86.0504 91.9328 85.4958 92.2315C84.9411 92.5301 84.3011 92.6795 83.5758 92.6795ZM84.0718 90.6315C84.5091 90.6315 84.8984 90.5461 85.2398 90.3755C85.5811 90.1941 85.8478 89.9435 86.0398 89.6235C86.2318 89.3035 86.3278 88.9355 86.3278 88.5195C86.3278 88.0928 86.2318 87.7248 86.0398 87.4155C85.8478 87.0955 85.5811 86.8501 85.2398 86.6795C84.8984 86.4981 84.5091 86.4075 84.0718 86.4075C83.6344 86.4075 83.2451 86.4981 82.9038 86.6795C82.5624 86.8501 82.2904 87.0955 82.0878 87.4155C81.8958 87.7248 81.7998 88.0928 81.7998 88.5195C81.7998 88.9355 81.8958 89.3035 82.0878 89.6235C82.2904 89.9435 82.5624 90.1941 82.9038 90.3755C83.2451 90.5461 83.6344 90.6315 84.0718 90.6315ZM91.1149 93.0955V84.4875H93.6109V93.0955H91.1149ZM92.3629 83.2875C91.9042 83.2875 91.5309 83.1541 91.2429 82.8875C90.9549 82.6208 90.8109 82.2901 90.8109 81.8955C90.8109 81.5008 90.9549 81.1701 91.2429 80.9035C91.5309 80.6368 91.9042 80.5035 92.3629 80.5035C92.8216 80.5035 93.1949 80.6315 93.4829 80.8875C93.7709 81.1328 93.9149 81.4528 93.9149 81.8475C93.9149 82.2635 93.7709 82.6101 93.4829 82.8875C93.2056 83.1541 92.8322 83.2875 92.3629 83.2875ZM99.4474 93.2235C98.4341 93.2235 97.6447 92.9675 97.0794 92.4555C96.5141 91.9328 96.2314 91.1595 96.2314 90.1355V82.5835H98.7274V90.1035C98.7274 90.4661 98.8234 90.7488 99.0154 90.9515C99.2074 91.1435 99.4687 91.2395 99.7994 91.2395C100.194 91.2395 100.53 91.1328 100.807 90.9195L101.479 92.6795C101.223 92.8608 100.914 92.9995 100.551 93.0955C100.199 93.1808 99.8314 93.2235 99.4474 93.2235ZM94.9034 86.5995V84.6795H100.871V86.5995H94.9034ZM108.161 93.0955V91.4155L108.001 91.0475V88.0395C108.001 87.5061 107.835 87.0901 107.505 86.7915C107.185 86.4928 106.689 86.3435 106.017 86.3435C105.558 86.3435 105.105 86.4181 104.657 86.5675C104.219 86.7061 103.846 86.8981 103.537 87.1435L102.641 85.3995C103.11 85.0688 103.675 84.8128 104.337 84.6315C104.998 84.4501 105.67 84.3595 106.353 84.3595C107.665 84.3595 108.683 84.6688 109.409 85.2875C110.134 85.9061 110.497 86.8715 110.497 88.1835V93.0955H108.161ZM105.537 93.2235C104.865 93.2235 104.289 93.1115 103.809 92.8875C103.329 92.6528 102.961 92.3381 102.705 91.9435C102.449 91.5488 102.321 91.1061 102.321 90.6155C102.321 90.1035 102.443 89.6555 102.689 89.2715C102.945 88.8875 103.345 88.5888 103.889 88.3755C104.433 88.1515 105.142 88.0395 106.017 88.0395H108.305V89.4955H106.289C105.702 89.4955 105.297 89.5915 105.073 89.7835C104.859 89.9755 104.753 90.2155 104.753 90.5035C104.753 90.8235 104.875 91.0795 105.121 91.2715C105.377 91.4528 105.723 91.5435 106.161 91.5435C106.577 91.5435 106.95 91.4475 107.281 91.2555C107.611 91.0528 107.851 90.7595 108.001 90.3755L108.385 91.5275C108.203 92.0821 107.873 92.5035 107.393 92.7915C106.913 93.0795 106.294 93.2235 105.537 93.2235ZM112.756 93.0955V81.2235H115.252V93.0955H112.756Z" fill="#5806DC"/>
</svg>
