<svg width="306" height="224" viewBox="0 0 306 224" fill="none" xmlns="http://www.w3.org/2000/svg">
<g clip-path="url(#clip0_74_71)">
<path d="M201.944 46.0186C195.34 28.6649 171.373 18.6431 148.412 23.6343C125.45 28.6255 112.19 46.7396 118.794 64.0933C124.15 78.1671 140.927 87.4168 159.324 87.7488L166.959 90.176L156.139 120.54L211.937 128.486L234.614 84.3715C234.614 84.3715 201.697 84.8375 193.294 76.2613C202.371 68.1954 206.107 56.9577 201.944 46.0186Z" fill="#ED9DA0"/>
<path d="M0.871063 198.126L87.7149 224L172.057 214.586L83.1971 194.833L0.871063 198.126Z" fill="#090814"/>
<path d="M82.7162 187.457L165.81 156.11L183.524 176.458L94.1765 204.718C92.2245 209.407 87.364 213.784 80.3955 216.427C68.2026 221.051 54.2136 218.617 49.1501 210.991C44.0866 203.364 49.8661 193.433 62.0591 188.809C69.0276 186.166 76.576 185.838 82.7162 187.457Z" fill="#ED9DA0"/>
<path d="M223.724 83.7129C223.724 83.7129 215.616 115.494 187.302 114.835C158.989 114.177 164.216 99.0332 164.216 99.0332L137.473 110.391C137.473 110.391 125.885 122.736 125.885 138.209L117.608 168.167L105.848 177.385L140.695 198.125L158.554 179.031L176.413 219.853L306 224L303.604 139.855C303.604 139.855 296.635 99.3624 267.015 91.1322C237.395 82.9019 223.724 83.7129 223.724 83.7129Z" fill="#6C1FE8"/>
<path d="M151.645 32.8486C151.645 32.8486 134.663 44.4608 117.277 42.6273C99.8911 40.7938 96.6564 36.21 96.6564 34.3765C96.6564 34.3765 96.6564 34.9877 101.508 36.21L103.53 23.0698C103.53 23.0698 105.956 26.5163 114.851 27.6961C114.851 27.6961 107.169 25.2702 114.851 20.503C114.851 20.503 118.895 23.0698 122.534 23.0698C122.534 23.0698 142.75 2.28999 182.779 15.4302V9.97021L186.418 16.9581L191.113 16.6495L195.717 16.3469C195.717 16.3469 205.825 25.2089 205.017 31.3206C204.208 37.4323 219.547 68.1301 193.076 77.5336C193.076 77.5336 199.356 50.2669 188.439 56.6842C177.522 63.1015 170.649 53.0172 170.649 53.0172L151.645 32.8486Z" fill="#090814"/>
<path opacity="0.5" d="M9.90917 167.226C7.45006 167.226 5.13303 166.522 3.34857 165.225C1.4701 163.861 0.435577 162.025 0.435577 160.056V65.6601C0.435577 63.548 1.65854 61.5538 3.79139 60.1889C5.92338 58.824 8.72492 58.2398 11.4839 58.5885L108.975 70.8919C113.599 71.4754 116.932 74.4711 116.899 78.0148L116.147 157.205C116.111 161.041 112.109 164.165 107.037 164.317L10.2975 167.22C10.1678 167.224 10.0385 167.226 9.90917 167.226Z" fill="white"/>
<path d="M9.90919 167.555C7.34118 167.555 4.90376 166.812 3.04656 165.462C1.08216 164.036 0 162.115 0 160.056V65.6599C0 63.4506 1.27911 61.3649 3.5098 59.9375C5.74006 58.5094 8.67219 57.8999 11.5558 58.2636L109.047 70.5671C113.884 71.1774 117.369 74.3105 117.334 78.0169L116.583 157.207C116.546 161.109 112.586 164.307 107.489 164.626L107.49 164.633L10.315 167.549C10.1793 167.553 10.044 167.555 9.90919 167.555ZM9.91472 58.819C7.79038 58.819 5.72134 59.3845 4.073 60.44C2.03799 61.742 0.871175 63.6446 0.871175 65.6599V160.056C0.871175 161.935 1.85805 163.686 3.6506 164.988C5.43421 166.284 7.81037 166.966 10.2805 166.891L107.02 163.988C111.859 163.843 115.677 160.862 115.712 157.202L116.463 78.0122C116.495 74.6312 113.315 71.7731 108.903 71.2165L11.412 58.9131C10.9131 58.85 10.4124 58.819 9.91472 58.819Z" fill="#090814"/>
<path d="M43.6991 118.234H43.6757L14.4284 118.134C11.3963 118.123 8.92953 116.25 8.92953 113.959V86.191C8.92953 85.0079 9.59738 83.8759 10.7621 83.0852C11.9242 82.2958 13.4862 81.9155 15.0422 82.0397L44.2878 84.4111C47.1013 84.6392 49.2226 86.4238 49.2226 88.5622V114.059C49.2226 115.177 48.645 116.228 47.5956 117.017C46.5534 117.802 45.1696 118.234 43.6991 118.234ZM14.4582 82.6748C13.3139 82.6748 12.2007 82.9933 11.3444 83.575C10.3631 84.241 9.8007 85.1945 9.8007 86.191V113.959C9.8007 115.889 11.8787 117.466 14.4326 117.475L43.6778 117.575L43.6991 117.904V117.575C44.9378 117.575 46.1033 117.211 46.9813 116.551C47.8648 115.886 48.3515 115.001 48.3515 114.059V88.5622C48.3515 86.761 46.5644 85.2577 44.1951 85.0656L14.9499 82.6944C14.7857 82.6814 14.6215 82.6748 14.4582 82.6748Z" fill="#090814"/>
<path d="M101.194 118.128H56.9233C53.8771 118.128 51.3993 116.255 51.3993 113.953V90.6783C51.3993 89.5163 52.0476 88.3978 53.1778 87.6096C54.3063 86.8223 55.8351 86.4257 57.3673 86.5167L101.639 89.2152C104.487 89.3888 106.719 91.2166 106.719 93.3766V113.953C106.719 116.255 104.241 118.128 101.194 118.128ZM56.9284 87.1618C55.7632 87.1618 54.6288 87.4936 53.7682 88.0935C52.8167 88.7574 52.2705 89.6995 52.2705 90.6783V113.953C52.2705 115.892 54.3578 117.469 56.9233 117.469H101.194C103.76 117.469 105.848 115.892 105.848 113.953V93.3766C105.848 91.5573 103.968 90.0176 101.569 89.8713L57.2976 87.1729C57.1742 87.1655 57.0509 87.1618 56.9284 87.1618Z" fill="#090814"/>
<path d="M57.933 91.4614V93.7708L81.0191 94.4243V92.4734L57.933 91.4614Z" fill="#090814"/>
<path d="M57.933 97.0146V99.2851L97.5715 100.35V98.6825L57.933 97.0146Z" fill="#090814"/>
<path d="M57.933 101.231V103.42L79.7124 103.971V102.161L57.933 101.231Z" fill="#090814"/>
<path d="M14.1004 144.253C12.7333 144.253 11.4435 143.853 10.4694 143.127C9.47657 142.387 8.92953 141.398 8.92953 140.344V126.297C8.92953 124.141 11.25 122.388 14.1021 122.388H37.2967C40.1493 122.388 42.4698 124.141 42.4698 126.297V140.107C42.4698 142.233 40.1808 143.987 37.3669 144.016L14.1004 144.253ZM14.1021 123.046C11.7302 123.046 9.80071 124.505 9.80071 126.297V140.344C9.80071 141.22 10.2554 142.042 11.0811 142.658C11.8914 143.262 12.9634 143.595 14.1004 143.595L14.1608 143.594L37.355 143.357C39.695 143.333 41.5986 141.875 41.5986 140.107V126.297C41.5986 124.505 39.6687 123.046 37.2967 123.046L14.1021 123.046Z" fill="#090814"/>
<path d="M52.0191 143.341C50.6587 143.341 49.3737 142.944 48.4008 142.224C47.4003 141.482 46.849 140.491 46.849 139.432V126.297C46.849 124.141 49.1695 122.388 52.0221 122.388H71.2725C74.1251 122.388 76.4456 124.141 76.4456 126.297V139.141C76.4456 141.254 74.1711 143.007 71.3755 143.05L52.0191 143.341ZM52.0221 123.046C49.6501 123.046 47.7202 124.505 47.7202 126.297V139.432C47.7202 140.312 48.1783 141.137 49.0108 141.753C49.8199 142.353 50.888 142.683 52.0191 142.683L52.108 142.682L71.3585 142.391C73.6832 142.356 75.5744 140.898 75.5744 139.141V126.297C75.5744 124.505 73.6445 123.046 71.2725 123.046H52.0221Z" fill="#090814"/>
<path d="M84.7422 142.338C83.3865 142.338 82.1048 141.943 81.1328 141.226C80.1268 140.484 79.5725 139.491 79.5725 138.428V126.297C79.5725 124.141 81.893 122.388 84.7456 122.388H101.368C104.195 122.388 106.516 124.126 106.541 126.262L106.679 138.084C106.704 140.206 104.441 141.975 101.634 142.026L84.7422 142.338ZM84.7456 123.046C82.3737 123.046 80.4437 124.505 80.4437 126.297V138.428C80.4437 139.312 80.9044 140.138 81.7411 140.755C82.5498 141.351 83.6153 141.679 84.7422 141.679L84.8523 141.678L101.612 141.368C103.946 141.325 105.829 139.854 105.808 138.089L105.669 126.268C105.649 124.492 103.719 123.046 101.368 123.046L84.7456 123.046Z" fill="#090814"/>
<path d="M15.0276 128.498V130.093H33.6775L34.0151 128.498H15.0276Z" fill="#090814"/>
<path d="M34.7245 113.23L24.5745 103.641L13.5934 111.941L12.9774 111.475L24.6468 102.656L35.4051 112.819L34.7245 113.23Z" fill="#090814"/>
<path d="M41.4518 112.585L34.9754 105.099L30.1261 108.334L29.5493 107.84L35.1541 104.102L42.1809 112.225L41.4518 112.585Z" fill="#090814"/>
<path opacity="0.5" d="M233.082 49.6914C230.89 49.6914 228.756 49.1132 227.045 48.0302C224.903 46.6745 223.674 44.6857 223.674 42.5738V17.5861C223.674 14.3144 226.607 11.4753 230.807 10.6818L284.459 0.544321C287.263 0.0141787 290.188 0.474236 292.48 1.80522C294.772 3.13637 296.113 5.15278 296.158 7.33733L296.733 35.1491C296.806 38.6569 293.542 41.65 288.972 42.2662L234.745 49.5798C234.191 49.6546 233.634 49.6914 233.082 49.6914Z" fill="white"/>
<path d="M233.082 50.0207C230.78 50.0207 228.536 49.4034 226.766 48.2827C224.524 46.8644 223.239 44.7837 223.239 42.5739V17.5861C223.239 14.163 226.307 11.1926 230.701 10.3625L284.354 0.225002C287.287 -0.329094 290.347 0.15122 292.745 1.54425C295.144 2.93712 296.547 5.04676 296.594 7.33226L297.169 35.144C297.245 38.8141 293.83 41.9457 289.049 42.5903L234.821 49.904C234.247 49.9815 233.662 50.0207 233.082 50.0207ZM286.76 0.658377C286.03 0.658377 285.293 0.726053 284.565 0.86381L230.912 11.0013C226.907 11.7579 224.11 14.4657 224.11 17.5861V42.5739C224.11 44.5882 225.282 46.4851 227.325 47.778C229.346 49.0573 232.071 49.6064 234.668 49.2559L288.896 41.9422C293.254 41.3545 296.367 38.4998 296.298 35.1543L295.723 7.34255C295.68 5.25911 294.401 3.33594 292.214 2.06636C290.623 1.14222 288.713 0.658377 286.76 0.658377Z" fill="#090814"/>
<path d="M240.444 18.0478V20.662L275.291 15.085L276.598 12.1221L240.444 18.0478Z" fill="#090814"/>
<path d="M240.444 24.3027V26.9169L275.291 21.3398L276.598 18.377L240.444 24.3027Z" fill="#090814"/>
<path d="M240.444 30.5576V33.1718L275.291 27.5947L276.598 24.6318L240.444 30.5576Z" fill="#090814"/>
<path d="M240.444 36.813V39.4272L275.291 33.8501L276.598 30.8872L240.444 36.813Z" fill="#090814"/>
<path d="M149.362 195.274L242.212 193.812L246.703 217.932L149.948 214.581C145.53 218.187 138.658 220.572 130.864 220.707C117.225 220.944 105.96 214.22 105.701 205.69C105.442 197.159 116.288 190.052 129.926 189.816C137.721 189.68 144.729 191.824 149.362 195.274Z" fill="#ED9DA0"/>
<path d="M241.751 141.831C241.751 141.831 238.702 156.316 247.849 161.254C247.849 161.254 244.8 179.031 252.205 184.628C252.205 184.628 238.597 185.044 241.263 190.433C241.263 190.433 221.278 187.92 223.892 194.175C223.892 194.175 242.386 210.951 237.931 221.822L298.377 219.524L305.124 193.219" fill="#6C1FE8"/>
</g>
<defs>
<clipPath id="clip0_74_71">
<rect width="306" height="224" fill="white"/>
</clipPath>
</defs>
</svg>
