<svg width="306" height="224" viewBox="0 0 306 224" fill="none" xmlns="http://www.w3.org/2000/svg">
<path d="M283.894 0H4.91786C3.60289 0.0132408 2.34671 0.564018 1.42481 1.53153C0.502903 2.49903 -0.00945522 3.80428 0.000132167 5.16099V200.712C-0.00731543 202.067 0.506071 203.37 1.42782 204.335C2.34957 205.3 3.60454 205.849 4.91786 205.862H283.895C285.208 205.849 286.463 205.3 287.384 204.335C288.306 203.37 288.82 202.068 288.813 200.713V5.16257C288.822 3.80593 288.31 2.50074 287.388 1.53324C286.466 0.565746 285.21 0.014923 283.895 0.00157838L283.894 0Z" fill="#090814"/>
<path d="M275.649 1.02276H5.20946C3.94387 1.02506 2.73088 1.54535 1.83672 2.46943C0.942567 3.3935 0.440315 4.64586 0.440216 5.9516V192.686C0.441937 193.991 0.944966 195.241 1.83901 196.163C2.73305 197.086 3.94514 197.605 5.20946 197.606H275.647C276.912 197.605 278.124 197.086 279.018 196.163C279.912 195.241 280.415 193.99 280.416 192.686V5.95081C280.416 4.64551 279.915 3.39352 279.021 2.4695C278.127 1.54548 276.915 1.0249 275.65 1.02197L275.649 1.02276Z" fill="white"/>
<path d="M35.4444 147.267V69.5262L28.6252 67.958V154.304L80.0785 153.761L79.9048 146.799L35.4444 147.267Z" fill="#F2F2F2"/>
<path d="M86.2785 160.795H24.2857V57.8218H86.2785V160.795ZM25.5263 159.516H85.0387V59.101H25.5263V159.516Z" fill="#3F3D56"/>
<path d="M39.9067 64.2173H29.8658V65.4965H39.9067V64.2173Z" fill="#3F3D56"/>
<path d="M39.9067 67.4146H29.8658V68.6937H39.9067V67.4146Z" fill="#3F3D56"/>
<path d="M39.9067 70.6133H29.8658V71.8925H39.9067V70.6133Z" fill="#3F3D56"/>
<path d="M77.7216 125.617H34.8252V126.896H77.7216V125.617Z" fill="#3F3D56"/>
<path d="M77.7216 132.653H34.8252V133.932H77.7216V132.653Z" fill="#3F3D56"/>
<path d="M77.7216 139.688H34.8252V140.968H77.7216V139.688Z" fill="#3F3D56"/>
<path d="M76.9792 72.532C76.121 72.532 75.282 72.2694 74.5683 71.7775C73.8547 71.2855 73.2985 70.5863 72.9701 69.7682C72.6416 68.9501 72.5557 68.0498 72.7231 67.1814C72.8906 66.3129 73.3039 65.5151 73.9108 64.889C74.5176 64.2628 75.2909 63.8364 76.1327 63.6637C76.9744 63.4909 77.847 63.5796 78.6399 63.9184C79.4328 64.2573 80.1106 64.8312 80.5874 65.5674C81.0642 66.3037 81.3187 67.1693 81.3187 68.0548C81.3187 69.2422 80.8615 70.381 80.0477 71.2207C79.2339 72.0603 78.1301 72.532 76.9792 72.532ZM76.9792 64.8568C76.3662 64.8568 75.7669 65.0444 75.2572 65.3958C74.7474 65.7472 74.3501 66.2466 74.1155 66.831C73.8809 67.4154 73.8196 68.0584 73.9392 68.6787C74.0588 69.2991 74.354 69.8689 74.7875 70.3161C75.221 70.7634 75.7733 71.068 76.3745 71.1913C76.9758 71.3147 77.599 71.2514 78.1654 71.0094C78.7318 70.7673 79.2159 70.3574 79.5565 69.8315C79.8971 69.3056 80.0789 68.6873 80.0789 68.0548C80.0789 67.2067 79.7523 66.3932 79.171 65.7935C78.5897 65.1938 77.8013 64.8568 76.9792 64.8568Z" fill="#3F3D56"/>
<path d="M78.2195 110.907H34.2053V81.4863H78.2195V110.907ZM35.4451 109.628H76.9796V82.7655H35.4451V109.628Z" fill="#3F3D56"/>
<path d="M35.1589 81.5865L34.4923 82.665L77.2667 110.807L77.9333 109.728L35.1589 81.5865Z" fill="#3F3D56"/>
<path d="M77.2652 81.5842L34.4908 109.726L35.1574 110.805L77.9318 82.6627L77.2652 81.5842Z" fill="#3F3D56"/>
<path d="M200.602 147.267V69.5262L193.783 67.958V154.304L245.236 153.761L245.063 146.799L200.602 147.267Z" fill="#F2F2F2"/>
<path d="M251.436 160.795H189.444V57.8218H251.436V160.795ZM190.684 159.516H250.197V59.101H190.684V159.516Z" fill="#3F3D56"/>
<path d="M205.065 64.2173H195.024V65.4965H205.065V64.2173Z" fill="#3F3D56"/>
<path d="M205.065 67.4146H195.024V68.6937H205.065V67.4146Z" fill="#3F3D56"/>
<path d="M205.065 70.6133H195.024V71.8925H205.065V70.6133Z" fill="#3F3D56"/>
<path d="M242.879 125.617H199.983V126.896H242.879V125.617Z" fill="#3F3D56"/>
<path d="M242.879 132.653H199.983V133.932H242.879V132.653Z" fill="#3F3D56"/>
<path d="M242.879 139.688H199.983V140.968H242.879V139.688Z" fill="#3F3D56"/>
<path d="M242.137 72.532C241.279 72.532 240.44 72.2694 239.726 71.7775C239.013 71.2855 238.456 70.5863 238.128 69.7682C237.799 68.9501 237.714 68.0498 237.881 67.1814C238.048 66.3129 238.462 65.5151 239.069 64.889C239.676 64.2628 240.449 63.8364 241.291 63.6637C242.132 63.4909 243.005 63.5796 243.798 63.9184C244.591 64.2573 245.268 64.8312 245.745 65.5674C246.222 66.3037 246.477 67.1693 246.477 68.0548C246.477 69.2422 246.019 70.381 245.206 71.2207C244.392 72.0603 243.288 72.532 242.137 72.532ZM242.137 64.8568C241.524 64.8568 240.925 65.0444 240.415 65.3958C239.905 65.7472 239.508 66.2466 239.273 66.831C239.039 67.4154 238.977 68.0584 239.097 68.6787C239.217 69.2991 239.512 69.8689 239.945 70.3161C240.379 70.7634 240.931 71.068 241.532 71.1913C242.134 71.3147 242.757 71.2514 243.323 71.0094C243.89 70.7673 244.374 70.3574 244.714 69.8315C245.055 69.3056 245.237 68.6873 245.237 68.0548C245.237 67.2067 244.91 66.3932 244.329 65.7935C243.748 65.1938 242.959 64.8568 242.137 64.8568Z" fill="#3F3D56"/>
<path d="M243.377 110.907H199.363V81.4863H243.377V110.907ZM200.603 109.628H242.137V82.7655H200.603V109.628Z" fill="#3F3D56"/>
<path d="M200.317 81.5865L199.65 82.665L242.425 110.807L243.091 109.728L200.317 81.5865Z" fill="#3F3D56"/>
<path d="M242.423 81.5842L199.649 109.726L200.315 110.805L243.09 82.6627L242.423 81.5842Z" fill="#3F3D56"/>
<path d="M118.023 147.267V69.5262L111.204 67.958V154.304L162.658 153.761L162.484 146.799L118.023 147.267Z" fill="#F2F2F2"/>
<path d="M168.858 160.795H106.865V57.8218H168.858V160.795ZM108.105 159.516H167.618V59.101H108.105V159.516Z" fill="#3F3D56"/>
<path d="M122.486 64.2173H112.445V65.4965H122.486V64.2173Z" fill="#3F3D56"/>
<path d="M122.486 67.4146H112.445V68.6937H122.486V67.4146Z" fill="#3F3D56"/>
<path d="M122.486 70.6133H112.445V71.8925H122.486V70.6133Z" fill="#3F3D56"/>
<path d="M160.301 125.617H117.404V126.896H160.301V125.617Z" fill="#3F3D56"/>
<path d="M160.301 132.653H117.404V133.932H160.301V132.653Z" fill="#3F3D56"/>
<path d="M160.301 139.688H117.404V140.968H160.301V139.688Z" fill="#3F3D56"/>
<path d="M159.558 72.532C158.7 72.532 157.861 72.2694 157.147 71.7775C156.434 71.2855 155.878 70.5863 155.549 69.7682C155.221 68.9501 155.135 68.0498 155.302 67.1814C155.47 66.3129 155.883 65.5151 156.49 64.889C157.097 64.2628 157.87 63.8364 158.712 63.6637C159.554 63.4909 160.426 63.5796 161.219 63.9184C162.012 64.2573 162.69 64.8312 163.167 65.5674C163.643 66.3037 163.898 67.1693 163.898 68.0548C163.898 69.2422 163.441 70.381 162.627 71.2207C161.813 72.0603 160.709 72.532 159.558 72.532ZM159.558 64.8568C158.945 64.8568 158.346 65.0444 157.836 65.3958C157.327 65.7472 156.929 66.2466 156.695 66.831C156.46 67.4154 156.399 68.0584 156.518 68.6787C156.638 69.2991 156.933 69.8689 157.367 70.3161C157.8 70.7634 158.352 71.068 158.954 71.1913C159.555 71.3147 160.178 71.2514 160.745 71.0094C161.311 70.7673 161.795 70.3574 162.136 69.8315C162.476 69.3056 162.658 68.6873 162.658 68.0548C162.658 67.2067 162.331 66.3932 161.75 65.7935C161.169 65.1938 160.38 64.8568 159.558 64.8568Z" fill="#3F3D56"/>
<path d="M160.799 110.907H116.784V81.4863H160.799V110.907ZM118.024 109.628H159.559V82.7655H118.024V109.628Z" fill="#3F3D56"/>
<path d="M117.738 81.5865L117.071 82.665L159.846 110.807L160.512 109.728L117.738 81.5865Z" fill="#3F3D56"/>
<path d="M159.844 81.5842L117.07 109.726L117.737 110.805L160.511 82.6627L159.844 81.5842Z" fill="#3F3D56"/>
<path d="M280.418 224C294.546 224 306 212.183 306 197.606C306 183.029 294.546 171.212 280.418 171.212C266.289 171.212 254.835 183.029 254.835 197.606C254.835 212.183 266.289 224 280.418 224Z" fill="#6C1FE8"/>
<path d="M277.677 208.778C277.366 208.778 277.058 208.715 276.771 208.592C276.484 208.47 276.223 208.289 276.004 208.062L267.894 199.239C267.456 198.78 267.212 198.161 267.215 197.517C267.217 196.873 267.467 196.256 267.908 195.8C268.349 195.345 268.947 195.088 269.572 195.085C270.196 195.082 270.796 195.334 271.241 195.786L277.677 202.882L289.574 186.507C289.793 186.277 290.054 186.094 290.342 185.969C290.63 185.844 290.94 185.778 291.252 185.777C291.565 185.775 291.875 185.838 292.164 185.961C292.453 186.084 292.715 186.264 292.936 186.492C293.157 186.72 293.332 186.991 293.451 187.289C293.57 187.588 293.631 187.907 293.63 188.23C293.628 188.552 293.565 188.871 293.444 189.168C293.322 189.466 293.145 189.735 292.922 189.961L279.351 208.062C279.132 208.289 278.871 208.47 278.583 208.592C278.296 208.715 277.988 208.778 277.677 208.778Z" fill="#F2F2F2"/>
<path d="M250.56 32.7311H25.1627C24.92 32.6961 24.6976 32.5718 24.5367 32.381C24.3758 32.1902 24.2872 31.9458 24.2872 31.6929C24.2872 31.44 24.3758 31.1957 24.5367 31.0049C24.6976 30.8141 24.92 30.6898 25.1627 30.6548H250.56C250.802 30.6898 251.025 30.8141 251.186 31.0049C251.347 31.1957 251.435 31.44 251.435 31.6929C251.435 31.9458 251.347 32.1902 251.186 32.381C251.025 32.5718 250.802 32.6961 250.56 32.7311Z" fill="#CACACA"/>
<path d="M30.1838 25.3536C33.4408 25.3536 36.0812 22.5687 36.0812 19.1334C36.0812 15.698 33.4408 12.9131 30.1838 12.9131C26.9268 12.9131 24.2864 15.698 24.2864 19.1334C24.2864 22.5687 26.9268 25.3536 30.1838 25.3536Z" fill="#6C1FE8"/>
<path d="M50.5569 25.3536C53.8139 25.3536 56.4542 22.5687 56.4542 19.1334C56.4542 15.698 53.8139 12.9131 50.5569 12.9131C47.2999 12.9131 44.6595 15.698 44.6595 19.1334C44.6595 22.5687 47.2999 25.3536 50.5569 25.3536Z" fill="#6C1FE8"/>
<path d="M70.9292 25.3536C74.1862 25.3536 76.8265 22.5687 76.8265 19.1334C76.8265 15.698 74.1862 12.9131 70.9292 12.9131C67.6722 12.9131 65.0318 15.698 65.0318 19.1334C65.0318 22.5687 67.6722 25.3536 70.9292 25.3536Z" fill="#6C1FE8"/>
<path d="M245.539 25.3536C248.796 25.3536 251.436 22.5687 251.436 19.1334C251.436 15.698 248.796 12.9131 245.539 12.9131C242.282 12.9131 239.642 15.698 239.642 19.1334C239.642 22.5687 242.282 25.3536 245.539 25.3536Z" fill="#E6E6E6"/>
</svg>
