<svg width="306" height="224" viewBox="0 0 306 224" fill="none" xmlns="http://www.w3.org/2000/svg">
<g clip-path="url(#clip0_74_198)">
<path opacity="0.998" d="M276.665 80.8335H258.991V88.5184H276.665V80.8335Z" fill="#F2F2F2"/>
<path opacity="0.998" d="M263.749 24.7625H246.075V32.4473H263.749V24.7625Z" fill="#F2F2F2"/>
<path opacity="0.998" d="M276.325 33.5857H258.651V41.2706H276.325V33.5857Z" fill="#F2F2F2"/>
<path opacity="0.998" d="M242.337 25.3315H224.663V33.0164H242.337V25.3315Z" fill="#F2F2F2"/>
<path opacity="0.998" d="M17.6739 107.873H0V115.558H17.6739V107.873Z" fill="#F2F2F2"/>
<path opacity="0.998" d="M277.684 42.9785H260.01V50.6634H277.684V42.9785Z" fill="#F2F2F2"/>
<path opacity="0.998" d="M254.912 34.155H237.238V41.8399H254.912V34.155Z" fill="#F2F2F2"/>
<path opacity="0.998" d="M298.077 101.611H280.403V109.296H298.077V101.611Z" fill="#F2F2F2"/>
<path opacity="0.998" d="M276.665 102.181H258.991V109.866H276.665V102.181Z" fill="#F2F2F2"/>
<path opacity="0.998" d="M17.6739 80.8335H0V88.5184H17.6739V80.8335Z" fill="#F2F2F2"/>
<path opacity="0.998" d="M30.2496 89.6567H12.5757V97.3416H30.2496V89.6567Z" fill="#F2F2F2"/>
<path opacity="0.998" d="M125.757 0H108.083V7.68488H125.757V0Z" fill="#F2F2F2"/>
<path opacity="0.998" d="M265.109 141.743H247.435V149.428H265.109V141.743Z" fill="#F2F2F2"/>
<path opacity="0.998" d="M31.6091 99.0493H13.9352V106.734H31.6091V99.0493Z" fill="#F2F2F2"/>
<path opacity="0.998" d="M138.332 8.82349H120.658V16.5084H138.332V8.82349Z" fill="#F2F2F2"/>
<path opacity="0.998" d="M73.7546 60.9097H56.0807V68.5945H73.7546V60.9097Z" fill="#F2F2F2"/>
<path opacity="0.998" d="M86.3303 69.7334H68.6563V77.4183H86.3303V69.7334Z" fill="#F2F2F2"/>
<path opacity="0.998" d="M119.979 64.8945H102.305V72.5794H119.979V64.8945Z" fill="#F2F2F2"/>
<path opacity="0.998" d="M87.6898 79.126H70.0159V86.8109H87.6898V79.126Z" fill="#F2F2F2"/>
<path opacity="0.998" d="M288.9 141.743H271.227V149.428H288.9V141.743Z" fill="#F2F2F2"/>
<path d="M170.988 16.386C177.8 16.386 184.333 18.6521 189.15 22.6859C193.967 26.7196 196.673 32.1905 196.673 37.8951V47.0714H145.303V37.8951C145.303 32.1905 148.009 26.7196 152.826 22.6859C157.643 18.6521 164.176 16.386 170.988 16.386Z" fill="#CACACA"/>
<path d="M171.168 66.9268C187.338 66.9268 200.446 59.3842 200.446 50.0799C200.446 40.7756 187.338 33.2329 171.168 33.2329C154.999 33.2329 141.891 40.7756 141.891 50.0799C141.891 59.3842 154.999 66.9268 171.168 66.9268Z" fill="#CACACA"/>
<path d="M152.4 66.4003C152.4 66.4003 158.518 93.175 152.4 100.396C146.282 107.617 171.094 110.475 171.094 110.475L196.775 102.653L200.368 83.3981C200.368 83.3981 184.733 76.0264 187.972 61.1348L152.4 66.4003Z" fill="#FFB9B9"/>
<path d="M228.201 156.655C228.201 156.655 229.819 162.521 221.016 163.574C215.818 164.214 210.532 164.162 205.354 163.418L203.413 148.683H223.891L228.201 156.655Z" fill="#FFB9B9"/>
<path d="M72.7588 149.146C72.7588 149.146 68.8705 162.378 77.6735 163.574C86.4764 164.769 118.799 164.778 118.799 164.778V149.123L104.164 151.742L90.4259 140.71L72.7588 149.146Z" fill="#FFB9B9"/>
<path opacity="0.1" d="M154.29 75.0499L119.89 81.1409C119.89 81.1409 106.778 81.5934 98.3349 96.1833C89.8922 110.773 71.5692 152.442 71.5692 152.442C71.5692 152.442 87.2038 139.204 105.52 153.345L117.735 134.844L115.04 164.177H209.691V150.336C209.691 150.336 229.448 159.211 228.014 164.175C228.014 164.175 244.923 127.691 241.269 111.112C240.169 105.986 239.495 100.803 239.25 95.5998C239.035 91.3142 237.24 87.1895 234.114 83.7919C230.987 80.3944 226.681 77.8904 221.787 76.6239C220.006 76.1656 218.049 75.7358 215.873 75.3516C195.575 71.7425 190.382 75.3516 190.382 75.3516C190.382 75.3516 186.45 86.0649 186.521 90.9206C186.609 97.1624 175.923 101.301 175.923 101.301C175.923 101.301 160.115 98.1415 159.398 95.5856C158.681 93.0296 153.025 78.0584 154.29 75.0499Z" fill="black"/>
<path d="M154.29 74.4493L119.89 80.5403C119.89 80.5403 106.778 80.9928 98.3349 95.5827C89.8922 110.173 71.5657 151.847 71.5657 151.847C71.5657 151.847 87.2004 138.609 105.517 152.75L117.732 134.249L115.037 163.574H209.691V149.735C209.691 149.735 229.448 158.61 228.014 163.574C228.014 163.574 244.923 127.091 241.269 110.511C240.169 105.386 239.495 100.203 239.25 94.9992C239.035 90.7136 237.24 86.5889 234.114 83.1913C230.987 79.7938 226.681 77.2898 221.787 76.0233C220.006 75.565 218.048 75.1352 215.873 74.751C195.575 71.1419 190.382 74.751 190.382 74.751C190.382 74.751 186.45 85.4643 186.521 90.32C186.609 96.5618 175.923 100.7 175.923 100.7C175.923 100.7 160.115 97.5409 159.398 94.985C158.681 92.4291 153.025 77.4578 154.29 74.4493Z" fill="#6C1FE8"/>
<path opacity="0.1" d="M189.441 73.1713C187.996 69.7455 187.672 66.0582 188.502 62.4922L152.93 67.7549C152.93 67.7549 153.444 70.0063 154.025 73.3791C156.323 75.3763 159.083 76.9612 162.135 78.0373C165.188 79.1135 168.47 79.6584 171.783 79.639C175.095 79.6195 178.367 79.0361 181.402 77.9243C184.436 76.8124 187.169 75.1953 189.434 73.1713H189.441Z" fill="black"/>
<path d="M195.507 57.8274C195.546 60.5137 194.953 63.1802 193.761 65.6744C192.569 68.1687 190.803 70.442 188.562 72.3645C186.321 74.287 183.65 75.8211 180.701 76.8792C177.752 77.9372 174.584 78.4985 171.376 78.531C168.168 78.5636 164.984 78.0667 162.005 77.0687C159.027 76.0707 156.312 74.5912 154.016 72.7147C149.38 68.9249 146.731 63.7479 146.653 58.3227C146.656 58.1576 146.656 57.9925 146.656 57.8274C146.654 54.8499 147.429 51.908 148.926 49.2072C150.423 46.5064 152.606 44.1119 155.322 42.1909C158.039 40.27 161.224 38.8689 164.654 38.0856C168.084 37.3023 171.677 37.1557 175.182 37.656C180.594 38.4277 185.536 40.7041 189.213 44.1177C192.889 47.5313 195.084 51.8829 195.443 56.4697C195.486 56.9195 195.507 57.372 195.507 57.8274Z" fill="#FFB9B9"/>
<path d="M162.569 38.6521L162.603 38.635C157.92 40.0839 153.88 42.7007 151.027 46.1325C148.175 49.5644 146.648 53.6461 146.653 57.8273C146.653 57.9924 146.653 58.1574 146.653 58.3225C147.412 58.3053 148.159 58.155 148.845 57.8814C154.8 55.5531 158.362 48.4318 159.776 43.4651C160.285 41.6976 160.765 39.6853 162.569 38.6521Z" fill="#090814"/>
<path d="M181.266 39.227C179.333 38.4831 177.291 37.9558 175.193 37.6587C176.913 37.9902 178.45 38.7986 179.553 39.9528C180.094 40.5687 180.543 41.2378 180.889 41.9451C177.638 40.7548 174.117 40.1701 170.569 40.2315C167.022 40.2929 163.533 40.999 160.343 42.3009C161.876 45.1159 166.631 46.65 169.806 47.6775C173.281 48.8008 176.794 49.8283 180.342 50.76L177.201 48.6253L184.295 49.5703C184.371 48.3881 184.203 47.2037 183.798 46.0694C185.158 46.9859 186.959 47.2933 188.435 48.0617C191.198 49.5219 192.35 52.3311 193.856 54.7647C194.253 55.4079 194.722 56.0654 195.439 56.4724C195.15 52.7957 193.68 49.2527 191.185 46.2174C188.691 43.182 185.264 40.767 181.266 39.227Z" fill="#090814"/>
<path d="M143.866 53.9905C143.866 53.9905 169.017 27.8049 198.114 53.9905L195.599 48.1243C195.599 48.1243 181.946 31.4282 172.249 35.0316C162.552 38.6349 153.029 41.1994 153.029 41.1994L143.866 53.9905Z" fill="#CACACA"/>
<path opacity="0.1" d="M123.208 110.4C123.208 110.4 117.82 122.434 125.362 133.264C132.904 144.094 118.718 148.608 118.718 148.608" fill="black"/>
<path opacity="0.1" d="M210.506 99.5703C210.506 99.5703 219.846 109.498 213.739 118.373C207.631 127.247 207.991 148.608 207.991 148.608" fill="black"/>
<path d="M114.945 157.483H218.769C221.056 157.483 223.249 158.244 224.866 159.598C226.483 160.952 227.392 162.789 227.392 164.704H106.326C106.326 162.789 107.234 160.953 108.85 159.599C110.466 158.245 112.659 157.484 114.945 157.483Z" fill="#090814"/>
<path d="M125.509 107.842H208.209C209.95 107.842 211.673 108.129 213.282 108.687C214.89 109.245 216.351 110.062 217.582 111.093C218.813 112.124 219.789 113.347 220.455 114.694C221.121 116.041 221.464 117.484 221.464 118.942V159.137H112.253V118.942C112.253 115.998 113.65 113.175 116.136 111.093C118.621 109.011 121.993 107.842 125.509 107.842Z" fill="#090814"/>
<path d="M166.767 141.163C170.339 141.163 173.235 138.738 173.235 135.746C173.235 132.755 170.339 130.33 166.767 130.33C163.195 130.33 160.299 132.755 160.299 135.746C160.299 138.738 163.195 141.163 166.767 141.163Z" fill="white"/>
<path opacity="0.1" d="M145.303 42.1815C145.303 42.1815 170.02 21.4949 196.677 41.8029" stroke="black" stroke-miterlimit="10"/>
<path d="M202.92 40.8635H200.439V52.6442H202.92V40.8635Z" fill="#CACACA"/>
<path d="M197.129 48.4858C199.397 48.4858 201.572 49.2403 203.176 50.5833C204.779 51.9263 205.68 53.7477 205.68 55.647V56.1081C205.68 58.0074 204.779 59.8288 203.176 61.1718C201.572 62.5148 199.397 63.2693 197.129 63.2693V48.4858Z" fill="#6C1FE8"/>
<path d="M199.335 49.4111C199.335 48.5182 198.47 47.7944 197.404 47.7944C196.338 47.7944 195.474 48.5182 195.474 49.4111V62.3473C195.474 63.2402 196.338 63.964 197.404 63.964C198.47 63.964 199.335 63.2402 199.335 62.3473V49.4111Z" fill="#090814"/>
<path d="M138.805 52.875H141.286V41.0944H138.805V52.875Z" fill="#CACACA"/>
<path d="M144.596 63.5C142.328 63.5 140.153 62.7455 138.55 61.4025C136.946 60.0596 136.045 58.2381 136.045 56.3388V55.8777C136.045 54.9373 136.266 54.0061 136.696 53.1373C137.126 52.2684 137.756 51.479 138.55 50.814C139.344 50.1491 140.286 49.6216 141.324 49.2617C142.361 48.9018 143.473 48.7166 144.596 48.7166V63.5Z" fill="#6C1FE8"/>
<path d="M142.391 62.5747C142.391 63.4676 143.255 64.1914 144.321 64.1914C145.387 64.1914 146.252 63.4676 146.252 62.5747V49.6385C146.252 48.7457 145.387 48.0219 144.321 48.0219C143.255 48.0219 142.391 48.7457 142.391 49.6385V62.5747Z" fill="#090814"/>
<path d="M200.147 28.2719C196.785 22.42 189.464 15.3442 173.684 14.7778V14.7607H173.493L167.902 14.9827V15.0055C152.227 15.6089 144.94 22.6591 141.588 28.4911C139.356 32.4446 138.172 36.7555 138.115 41.1284L140.045 41.0886L141.976 41.0516C142.059 37.1584 143.128 33.3245 145.113 29.8032C149.368 22.4826 157.199 18.5918 168.385 18.2303L173.33 17.9998C184.522 18.3584 192.357 22.2549 196.609 29.5726C198.596 33.0952 199.668 36.9312 199.753 40.8267L201.683 40.8637L203.614 40.9036C203.558 36.533 202.376 32.2242 200.147 28.2719Z" fill="#6C1FE8"/>
<path d="M288.343 164.798H25.0324V224H288.343V164.798Z" fill="#D6D6E3"/>
<path opacity="0.1" d="M288.343 168.783H25.0324V175.044H288.343V168.783Z" fill="black"/>
<path d="M306 163.944H7.36865V171.629H306V163.944Z" fill="#D6D6E3"/>
</g>
<defs>
<clipPath id="clip0_74_198">
<rect width="306" height="224" fill="white"/>
</clipPath>
</defs>
</svg>
