<svg width="306" height="224" viewBox="0 0 306 224" fill="none" xmlns="http://www.w3.org/2000/svg">
<path d="M300.79 0H5.21042C3.81719 0.0144005 2.48622 0.613726 1.50947 1.66652C0.532708 2.71932 -0.0100836 4.13964 0.0001419 5.61592V218.398C-0.00734405 219.872 0.53675 221.289 1.51329 222.339C2.48983 223.389 3.81924 223.986 5.21042 224H300.79C302.181 223.986 303.51 223.389 304.487 222.339C305.463 221.289 306.007 219.872 306 218.398V5.61641C306.01 4.14021 305.467 2.71998 304.491 1.6672C303.514 0.614413 302.183 0.0150226 300.79 0.0004917L300.79 0Z" fill="#090814"/>
<path d="M257.433 1.1123H5.49115C4.31247 1.11506 3.18296 1.61308 2.35039 2.49712C1.51782 3.38116 1.05017 4.57902 1.05005 5.82792V184.488C1.05203 185.735 1.52058 186.931 2.35302 187.813C3.18546 188.695 4.3139 189.191 5.49115 189.193H257.432C258.609 189.191 259.738 188.695 260.57 187.813C261.403 186.931 261.871 185.735 261.873 184.488V5.82991C261.873 4.58109 261.406 3.3833 260.573 2.49928C259.741 1.61525 258.611 1.11717 257.433 1.11429V1.1123Z" fill="#090814"/>
<path d="M292.054 1.11281H5.52253C4.18163 1.1153 2.89644 1.68143 1.94907 2.68691C1.00171 3.6924 0.469543 5.05509 0.469421 6.47588V209.665C0.471155 211.084 1.0041 212.445 1.95136 213.449C2.89862 214.452 4.1829 215.017 5.52253 215.019H292.054C293.394 215.017 294.678 214.452 295.625 213.449C296.573 212.445 297.106 211.084 297.107 209.665V6.47489C297.107 5.05457 296.576 3.69226 295.629 2.68682C294.682 1.68139 293.398 1.11497 292.057 1.11182L292.054 1.11281Z" fill="white"/>
<path d="M283.381 29.1088H15.275C14.9922 29.1088 14.7209 28.9897 14.521 28.7779C14.321 28.566 14.2087 28.2786 14.2087 27.9789C14.2087 27.6793 14.321 27.3919 14.521 27.18C14.7209 26.9682 14.9922 26.8491 15.275 26.8491H283.382C283.664 26.8491 283.936 26.9682 284.136 27.18C284.336 27.3919 284.448 27.6793 284.448 27.9789C284.448 28.2786 284.336 28.566 284.136 28.7779C283.936 28.9897 283.664 29.1088 283.381 29.1088Z" fill="#CACACA"/>
<path d="M20.4811 21.0805C23.932 21.0805 26.7296 18.0504 26.7296 14.3125C26.7296 10.5746 23.932 7.54443 20.4811 7.54443C17.0301 7.54443 14.2325 10.5746 14.2325 14.3125C14.2325 18.0504 17.0301 21.0805 20.4811 21.0805Z" fill="#3F3D56"/>
<path d="M42.0656 21.0805C45.5166 21.0805 48.3142 18.0504 48.3142 14.3125C48.3142 10.5746 45.5166 7.54443 42.0656 7.54443C38.6147 7.54443 35.8171 10.5746 35.8171 14.3125C35.8171 18.0504 38.6147 21.0805 42.0656 21.0805Z" fill="#3F3D56"/>
<path d="M63.6507 21.0805C67.1017 21.0805 69.8992 18.0504 69.8992 14.3125C69.8992 10.5746 67.1017 7.54443 63.6507 7.54443C60.1998 7.54443 57.4022 10.5746 57.4022 14.3125C57.4022 18.0504 60.1998 21.0805 63.6507 21.0805Z" fill="#6C1FE8"/>
<path d="M278.176 21.0805C281.627 21.0805 284.425 18.0504 284.425 14.3125C284.425 10.5746 281.627 7.54443 278.176 7.54443C274.725 7.54443 271.928 10.5746 271.928 14.3125C271.928 18.0504 274.725 21.0805 278.176 21.0805Z" fill="#E6E6E6"/>
<path d="M225.323 80.7949H163.776C157.574 80.7949 152.547 86.1219 152.547 92.693V107.839C152.547 114.41 157.574 119.737 163.776 119.737H225.323C231.524 119.737 236.552 114.41 236.552 107.839V92.693C236.552 86.1219 231.524 80.7949 225.323 80.7949Z" fill="#6C1FE8"/>
<path d="M133.604 80.7949H72.0571C65.8554 80.7949 60.828 86.1219 60.828 92.693V107.839C60.828 114.41 65.8554 119.737 72.0571 119.737H133.604C139.806 119.737 144.833 114.41 144.833 107.839V92.693C144.833 86.1219 139.806 80.7949 133.604 80.7949Z" fill="#E6E6E6"/>
<path d="M193.499 110.838C193.242 110.838 192.994 110.738 192.802 110.557C192.61 110.376 192.487 110.127 192.457 109.856C192.259 108.121 191.52 106.506 190.355 105.268C189.192 104.04 187.676 103.257 186.046 103.044C185.869 103.026 185.7 102.96 185.553 102.854C185.407 102.747 185.288 102.603 185.209 102.434C185.13 102.266 185.092 102.079 185.099 101.891C185.106 101.703 185.159 101.52 185.251 101.359C185.816 100.327 186.598 99.4461 187.536 98.7851C188.474 98.1241 189.542 97.7003 190.659 97.5464C191.429 95.6372 192.688 93.9944 194.293 92.8037C195.899 91.6131 197.787 90.9222 199.743 90.8091C199.762 90.8091 199.781 90.8091 199.8 90.8091C200.914 90.8103 201.982 91.2795 202.769 92.1138C203.557 92.9482 204 94.0795 204.001 95.2595C204.001 95.2796 204.001 95.2998 204.001 95.32C203.894 97.3932 203.242 99.3934 202.118 101.094C200.994 102.795 199.444 104.129 197.642 104.945C197.496 106.133 197.094 107.269 196.466 108.265C195.839 109.261 195.003 110.091 194.024 110.689C193.864 110.786 193.684 110.838 193.499 110.838ZM188 101.225C189.448 101.71 190.766 102.556 191.842 103.693C192.914 104.833 193.712 106.229 194.169 107.764C195.052 106.778 195.562 105.482 195.6 104.123C195.607 103.899 195.678 103.682 195.803 103.502C195.928 103.321 196.102 103.184 196.302 103.11C197.866 102.531 199.232 101.473 200.229 100.071C201.225 98.6681 201.807 96.984 201.9 95.2312C201.892 94.6511 201.671 94.0971 201.284 93.6869C200.897 93.2766 200.374 93.0426 199.827 93.0345C198.172 93.1329 196.582 93.749 195.259 94.805C193.935 95.861 192.936 97.3093 192.39 98.9667C192.32 99.1783 192.191 99.3625 192.02 99.4952C191.85 99.6279 191.645 99.7029 191.434 99.7104C190.152 99.7511 188.93 100.29 188 101.225Z" fill="white"/>
<path d="M186.109 111.385C185.747 111.385 185.386 111.362 185.027 111.316C184.775 111.29 184.538 111.176 184.353 110.993C184.168 110.81 184.045 110.568 184.003 110.303C183.789 108.674 184.072 107.014 184.812 105.568C185.575 104.078 186.742 102.866 188.162 102.088C188.436 101.933 188.754 101.894 189.054 101.976C189.354 102.059 189.613 102.258 189.781 102.534C189.857 102.668 189.906 102.818 189.924 102.974C189.943 103.13 189.93 103.288 189.888 103.438C189.845 103.589 189.774 103.728 189.678 103.848C189.582 103.967 189.464 104.064 189.331 104.133C188.463 104.593 187.726 105.29 187.195 106.152C186.665 107.013 186.36 108.009 186.313 109.036C187.309 109.016 188.285 108.734 189.152 108.213C190.019 107.692 190.749 106.951 191.277 106.055C191.444 105.779 191.704 105.58 192.004 105.498C192.304 105.415 192.622 105.455 192.895 105.609C193.029 105.677 193.147 105.775 193.243 105.894C193.339 106.014 193.41 106.153 193.453 106.304C193.495 106.454 193.507 106.612 193.489 106.768C193.471 106.923 193.422 107.073 193.346 107.208C192.508 108.658 191.282 109.81 189.823 110.518C188.66 111.091 187.392 111.387 186.109 111.385Z" fill="white"/>
<path d="M197.716 99.2138C197.39 99.2138 197.071 99.1113 196.8 98.9194C196.529 98.7274 196.318 98.4546 196.193 98.1353C196.068 97.8161 196.035 97.4648 196.099 97.1259C196.163 96.787 196.32 96.4758 196.55 96.2314C196.781 95.9871 197.075 95.8207 197.394 95.7533C197.714 95.6859 198.046 95.7205 198.347 95.8527C198.648 95.9849 198.906 96.2089 199.087 96.4962C199.268 96.7835 199.365 97.1212 199.365 97.4668C199.364 97.93 199.19 98.374 198.881 98.7015C198.572 99.0291 198.153 99.2133 197.716 99.2138Z" fill="white"/>
<path d="M112.199 162.161H186.116C186.755 162.161 187.369 161.891 187.821 161.412C188.273 160.933 188.527 160.283 188.527 159.606C188.527 158.928 188.273 158.279 187.821 157.8C187.369 157.32 186.755 157.051 186.116 157.051H112.199C111.56 157.051 110.947 157.32 110.494 157.8C110.042 158.279 109.788 158.928 109.788 159.606C109.788 160.283 110.042 160.933 110.494 161.412C110.947 161.891 111.56 162.161 112.199 162.161Z" fill="#E4E4E4"/>
<path d="M112.2 175.044H144.24C144.88 175.044 145.493 174.775 145.945 174.296C146.397 173.817 146.651 173.167 146.651 172.49C146.651 171.812 146.397 171.162 145.945 170.683C145.493 170.204 144.88 169.935 144.24 169.935H112.2C111.56 169.935 110.947 170.204 110.495 170.683C110.042 171.162 109.788 171.812 109.788 172.49C109.788 173.168 110.042 173.817 110.495 174.297C110.947 174.776 111.56 175.045 112.2 175.045V175.044Z" fill="#E4E4E4"/>
</svg>
