<svg width="306" height="224" viewBox="0 0 306 224" fill="none" xmlns="http://www.w3.org/2000/svg">
<g clip-path="url(#clip0_74_248)">
<path d="M176.339 10.9021C178.964 16.3187 173.402 17.853 167.031 20.7562C160.66 23.6594 155.892 26.8322 153.267 21.4156C150.642 15.999 148.513 5.24813 157.526 1.14102C166.849 -3.10757 173.714 5.48556 176.339 10.9021Z" fill="#2F2E41"/>
<path d="M163.34 21.5545C168.077 21.5545 171.917 17.8307 171.917 13.2372C171.917 8.64371 168.077 4.91992 163.34 4.91992C158.603 4.91992 154.763 8.64371 154.763 13.2372C154.763 17.8307 158.603 21.5545 163.34 21.5545Z" fill="#FFB8B8"/>
<path d="M205.832 50.1228C205.535 49.7469 205.238 49.3778 204.938 49.0189C204.55 48.5516 204.16 48.0989 203.768 47.6609C199.322 42.6863 194.594 39.5539 189.388 39.2187H189.381L189.304 39.2119L178.929 49.0189L175.402 52.3511L175.479 52.5339L177.382 57.1293H210.727C209.225 54.7112 207.591 52.3724 205.832 50.1228Z" fill="#2F2E41"/>
<path d="M154.013 16.5856L157.084 15.1866L156.656 10.8915L158.709 14.4459L160.176 13.7772L159.927 11.2718L161.125 13.3452L172.028 8.37647C171.004 6.26306 169.156 4.63071 166.891 3.83854C164.626 3.04636 162.129 3.15924 159.95 4.15235L158.369 4.87245C156.19 5.86557 154.507 7.65755 153.69 9.8542C152.873 12.0508 152.989 14.4722 154.013 16.5856Z" fill="#2F2E41"/>
<path d="M225.073 167.558H45.9862C44.4586 167.557 42.994 166.967 41.9138 165.92C40.8336 164.872 40.226 163.452 40.2243 161.971V57.618C40.2255 56.5327 40.6706 55.4922 41.462 54.7248C42.2533 53.9574 43.3263 53.5257 44.4454 53.5244H226.541C227.679 53.5257 228.771 53.9648 229.576 54.7455C230.381 55.5262 230.834 56.5847 230.835 57.6888V161.971C230.833 163.452 230.225 164.872 229.145 165.92C228.065 166.967 226.6 167.557 225.073 167.558Z" fill="#F2F2F2"/>
<path d="M51.5735 161.971H219.486C220.967 161.971 222.389 161.4 223.436 160.384C224.484 159.367 225.073 157.989 225.073 156.552V67.9822C225.073 66.5452 224.484 65.167 223.436 64.1509C222.389 63.1348 220.967 62.564 219.486 62.564H51.5735C50.0916 62.564 48.6705 63.1348 47.6227 64.1509C46.5748 65.167 45.9862 66.5452 45.9862 67.9822V156.552C45.9862 157.989 46.5748 159.367 47.6227 160.384C48.6705 161.4 50.0916 161.971 51.5735 161.971Z" fill="white"/>
<path d="M230.755 57.2987H40.1434V54.454C40.1456 52.9677 40.7557 51.5429 41.8398 50.4922C42.924 49.4416 44.3936 48.8508 45.9263 48.8496H224.972C226.504 48.8508 227.974 49.4416 229.058 50.4922C230.142 51.5429 230.752 52.9677 230.755 54.454V57.2987Z" fill="#6C1FE8"/>
<path d="M50.6529 54.5329C51.479 54.5329 52.1487 53.8835 52.1487 53.0824C52.1487 52.2813 51.479 51.6318 50.6529 51.6318C49.8268 51.6318 49.1571 52.2813 49.1571 53.0824C49.1571 53.8835 49.8268 54.5329 50.6529 54.5329Z" fill="white"/>
<path d="M56.3306 54.5329C57.1567 54.5329 57.8264 53.8835 57.8264 53.0824C57.8264 52.2813 57.1567 51.6318 56.3306 51.6318C55.5045 51.6318 54.8348 52.2813 54.8348 53.0824C54.8348 53.8835 55.5045 54.5329 56.3306 54.5329Z" fill="white"/>
<path d="M62.0083 54.5329C62.8344 54.5329 63.5041 53.8835 63.5041 53.0824C63.5041 52.2813 62.8344 51.6318 62.0083 51.6318C61.1822 51.6318 60.5125 52.2813 60.5125 53.0824C60.5125 53.8835 61.1822 54.5329 62.0083 54.5329Z" fill="white"/>
<path d="M140.769 142.763H125.753C124.873 142.762 124.03 142.422 123.408 141.819C122.786 141.216 122.436 140.399 122.435 139.546V124.984C122.436 124.131 122.786 123.314 123.408 122.71C124.03 122.107 124.873 121.768 125.753 121.767H140.769C141.648 121.768 142.492 122.107 143.114 122.71C143.735 123.314 144.085 124.131 144.086 124.984V139.546C144.085 140.399 143.735 141.216 143.114 141.819C142.492 142.422 141.648 142.762 140.769 142.763ZM125.753 122.444C125.059 122.445 124.393 122.713 123.902 123.189C123.411 123.665 123.135 124.311 123.134 124.984V139.546C123.135 140.219 123.411 140.865 123.902 141.341C124.393 141.817 125.059 142.085 125.753 142.085H140.769C141.463 142.085 142.129 141.817 142.62 141.341C143.111 140.865 143.387 140.219 143.388 139.546V124.984C143.387 124.311 143.111 123.665 142.62 123.189C142.129 122.713 141.463 122.445 140.769 122.444H125.753Z" fill="#CCCCCC"/>
<path d="M137.801 138.699H128.721C128.443 138.699 128.177 138.592 127.981 138.401C127.784 138.211 127.674 137.953 127.674 137.683V126.847C127.674 126.578 127.784 126.319 127.981 126.129C128.177 125.938 128.443 125.831 128.721 125.831H135.3C135.539 125.831 135.77 125.91 135.956 126.055L138.457 128.004C138.579 128.099 138.678 128.219 138.746 128.356C138.814 128.493 138.849 128.643 138.848 128.795V137.683C138.848 137.953 138.737 138.211 138.541 138.401C138.345 138.592 138.078 138.699 137.801 138.699ZM128.721 126.508C128.629 126.508 128.54 126.544 128.474 126.608C128.409 126.671 128.372 126.757 128.372 126.847V137.683C128.372 137.773 128.409 137.859 128.474 137.923C128.54 137.986 128.629 138.022 128.721 138.022H137.801C137.893 138.022 137.982 137.986 138.047 137.923C138.113 137.859 138.15 137.773 138.15 137.683V128.795C138.15 128.745 138.138 128.695 138.116 128.649C138.093 128.603 138.06 128.563 138.019 128.532L135.519 126.583C135.457 126.535 135.38 126.508 135.3 126.508H128.721Z" fill="#CCCCCC"/>
<path d="M136.055 130.572H130.467C130.375 130.572 130.286 130.536 130.22 130.473C130.155 130.409 130.118 130.323 130.118 130.233C130.118 130.143 130.155 130.057 130.22 129.994C130.286 129.93 130.375 129.895 130.467 129.895H136.055C136.147 129.895 136.236 129.93 136.301 129.994C136.367 130.057 136.404 130.143 136.404 130.233C136.404 130.323 136.367 130.409 136.301 130.473C136.236 130.536 136.147 130.572 136.055 130.572Z" fill="#CCCCCC"/>
<path d="M136.055 132.604H130.467C130.375 132.604 130.286 132.568 130.22 132.504C130.155 132.441 130.118 132.355 130.118 132.265C130.118 132.175 130.155 132.089 130.22 132.025C130.286 131.962 130.375 131.926 130.467 131.926H136.055C136.147 131.926 136.236 131.962 136.301 132.025C136.367 132.089 136.404 132.175 136.404 132.265C136.404 132.355 136.367 132.441 136.301 132.504C136.236 132.568 136.147 132.604 136.055 132.604Z" fill="#CCCCCC"/>
<path d="M136.055 134.635H130.467C130.375 134.635 130.286 134.6 130.22 134.536C130.155 134.473 130.118 134.386 130.118 134.297C130.118 134.207 130.155 134.121 130.22 134.057C130.286 133.994 130.375 133.958 130.467 133.958H136.055C136.147 133.958 136.236 133.994 136.301 134.057C136.367 134.121 136.404 134.207 136.404 134.297C136.404 134.386 136.367 134.473 136.301 134.536C136.236 134.6 136.147 134.635 136.055 134.635Z" fill="#CCCCCC"/>
<path d="M176.388 142.763H161.372C160.492 142.762 159.649 142.422 159.027 141.819C158.405 141.216 158.056 140.399 158.055 139.546V124.984C158.056 124.131 158.405 123.314 159.027 122.71C159.649 122.107 160.492 121.768 161.372 121.767H176.388C177.267 121.768 178.111 122.107 178.733 122.71C179.355 123.314 179.704 124.131 179.705 124.984V139.546C179.704 140.399 179.355 141.216 178.733 141.819C178.111 142.422 177.267 142.762 176.388 142.763ZM161.372 122.444C160.678 122.445 160.012 122.713 159.521 123.189C159.03 123.665 158.754 124.311 158.753 124.984V139.546C158.754 140.219 159.03 140.865 159.521 141.341C160.012 141.817 160.678 142.085 161.372 142.085H176.388C177.082 142.085 177.748 141.817 178.239 141.341C178.73 140.865 179.006 140.219 179.007 139.546V124.984C179.006 124.311 178.73 123.665 178.239 123.189C177.748 122.713 177.082 122.445 176.388 122.444H161.372Z" fill="#CCCCCC"/>
<path d="M173.769 135.99H163.991C163.713 135.99 163.447 135.883 163.251 135.692C163.054 135.502 162.944 135.244 162.943 134.974V129.556C162.944 129.287 163.054 129.028 163.251 128.838C163.447 128.647 163.713 128.54 163.991 128.54H173.769C174.047 128.54 174.313 128.647 174.509 128.838C174.706 129.028 174.816 129.287 174.817 129.556V134.974C174.816 135.244 174.706 135.502 174.509 135.692C174.313 135.883 174.047 135.99 173.769 135.99ZM163.991 129.217C163.899 129.217 163.81 129.253 163.744 129.317C163.679 129.38 163.642 129.466 163.642 129.556V134.974C163.642 135.064 163.679 135.15 163.744 135.214C163.81 135.277 163.899 135.313 163.991 135.313H173.769C173.861 135.313 173.95 135.277 174.016 135.214C174.081 135.15 174.118 135.064 174.118 134.974V129.556C174.118 129.466 174.081 129.38 174.016 129.317C173.95 129.253 173.861 129.217 173.769 129.217H163.991Z" fill="#CCCCCC"/>
<path d="M168.88 133.159C168.684 133.159 168.491 133.106 168.325 133.005L163.107 129.843C163.029 129.796 162.973 129.72 162.953 129.632C162.932 129.545 162.948 129.453 162.997 129.377C163.046 129.301 163.124 129.247 163.214 129.227C163.305 129.206 163.399 129.222 163.478 129.269L168.695 132.431C168.751 132.464 168.815 132.482 168.88 132.482C168.945 132.482 169.01 132.464 169.065 132.431L174.282 129.269C174.361 129.222 174.455 129.206 174.545 129.227C174.636 129.247 174.714 129.301 174.763 129.377C174.812 129.453 174.828 129.545 174.807 129.632C174.786 129.72 174.731 129.796 174.652 129.843L169.435 133.005C169.269 133.106 169.076 133.159 168.88 133.159Z" fill="#CCCCCC"/>
<path d="M105.15 142.763H90.1338C89.2543 142.762 88.4111 142.422 87.7892 141.819C87.1672 141.216 86.8174 140.399 86.8164 139.546V124.984C86.8174 124.131 87.1672 123.314 87.7892 122.71C88.4111 122.107 89.2543 121.768 90.1338 121.767H105.15C106.029 121.768 106.873 122.107 107.494 122.71C108.116 123.314 108.466 124.131 108.467 124.984V139.546C108.466 140.399 108.116 141.216 107.494 141.819C106.873 142.422 106.029 142.762 105.15 142.763ZM90.1338 122.444C89.4395 122.445 88.7738 122.713 88.2828 123.189C87.7917 123.665 87.5156 124.311 87.5148 124.984V139.546C87.5156 140.219 87.7918 140.865 88.2828 141.341C88.7737 141.817 89.4395 142.085 90.1338 142.085H105.15C105.844 142.085 106.51 141.817 107.001 141.341C107.492 140.865 107.768 140.219 107.769 139.546V124.984C107.768 124.311 107.492 123.665 107.001 123.189C106.51 122.713 105.844 122.445 105.15 122.444H90.1338Z" fill="#CCCCCC"/>
<path d="M102.531 135.99H92.7529C92.4751 135.99 92.2088 135.883 92.0124 135.692C91.816 135.502 91.7056 135.244 91.7053 134.974V129.556C91.7056 129.287 91.816 129.028 92.0124 128.838C92.2088 128.647 92.4751 128.54 92.7529 128.54H102.531C102.808 128.54 103.075 128.647 103.271 128.838C103.468 129.028 103.578 129.287 103.578 129.556V134.974C103.578 135.244 103.468 135.502 103.271 135.692C103.075 135.883 102.808 135.99 102.531 135.99ZM92.7529 129.217C92.6603 129.217 92.5715 129.253 92.5061 129.317C92.4406 129.38 92.4038 129.466 92.4037 129.556V134.974C92.4038 135.064 92.4406 135.15 92.5061 135.214C92.5715 135.277 92.6603 135.313 92.7529 135.313H102.531C102.623 135.313 102.712 135.277 102.777 135.214C102.843 135.15 102.88 135.064 102.88 134.974V129.556C102.88 129.466 102.843 129.38 102.777 129.317C102.712 129.253 102.623 129.217 102.531 129.217H92.7529Z" fill="#CCCCCC"/>
<path d="M100.981 135.99H93.9535C93.8309 135.99 93.7104 135.959 93.6042 135.899C93.498 135.84 93.4098 135.754 93.3485 135.651C93.2872 135.548 93.255 135.431 93.255 135.313C93.255 135.194 93.2873 135.077 93.3487 134.974L95.4654 131.418C95.5267 131.315 95.6149 131.23 95.7211 131.17C95.8272 131.111 95.9477 131.08 96.0703 131.08C96.1929 131.08 96.3133 131.111 96.4195 131.17C96.5257 131.23 96.6139 131.315 96.6752 131.418L98.0423 133.715L98.8344 132.384C98.8957 132.281 98.9838 132.196 99.09 132.136C99.1962 132.077 99.3166 132.046 99.4392 132.046C99.5618 132.046 99.6823 132.077 99.7885 132.136C99.8946 132.196 99.9828 132.281 100.044 132.384L101.586 134.974C101.647 135.077 101.679 135.194 101.679 135.313C101.679 135.431 101.647 135.548 101.586 135.651C101.525 135.754 101.436 135.84 101.33 135.899C101.224 135.959 101.104 135.99 100.981 135.99ZM100.981 135.313L99.4392 132.723L98.3448 134.561C98.3142 134.613 98.2701 134.655 98.217 134.685C98.1639 134.715 98.1037 134.731 98.0423 134.731C97.981 134.731 97.9208 134.715 97.8677 134.685C97.8146 134.655 97.7705 134.613 97.7399 134.561L96.0704 131.757L93.9535 135.313H100.981Z" fill="#CCCCCC"/>
<path d="M101.483 131.249C101.869 131.249 102.181 130.946 102.181 130.572C102.181 130.198 101.869 129.895 101.483 129.895C101.097 129.895 100.785 130.198 100.785 130.572C100.785 130.946 101.097 131.249 101.483 131.249Z" fill="#CCCCCC"/>
<path d="M268.479 219.488L264.198 219.488L262.161 203.475L268.48 203.475L268.479 219.488Z" fill="#FFB8B8"/>
<path d="M269.571 223.513L255.766 223.512V223.343C255.766 222.658 255.905 221.981 256.175 221.349C256.445 220.717 256.841 220.142 257.34 219.658C257.839 219.175 258.431 218.791 259.083 218.529C259.735 218.267 260.434 218.132 261.139 218.132H261.14L269.571 218.133L269.571 223.513Z" fill="#2F2E41"/>
<path d="M285.939 219.488L281.658 219.488L279.621 203.475L285.94 203.475L285.939 219.488Z" fill="#FFB8B8"/>
<path d="M287.031 223.513L273.227 223.512V223.343C273.227 222.658 273.366 221.981 273.636 221.349C273.906 220.717 274.301 220.142 274.8 219.658C275.299 219.175 275.892 218.791 276.544 218.529C277.195 218.267 277.894 218.132 278.6 218.132H278.6L287.031 218.133L287.031 223.513Z" fill="#2F2E41"/>
<path d="M284.656 212.546L280.691 211.377C280.395 211.29 280.133 211.12 279.936 210.889C279.739 210.658 279.617 210.376 279.585 210.079L275.889 176.104C275.886 176.063 275.867 176.025 275.836 175.997C275.805 175.968 275.764 175.953 275.721 175.953C275.679 175.949 275.637 175.961 275.603 175.987C275.57 176.013 275.548 176.05 275.543 176.091L269.351 209.007C269.314 209.206 269.235 209.397 269.121 209.567C269.006 209.737 268.858 209.883 268.684 209.996C268.511 210.11 268.316 210.189 268.11 210.228C267.905 210.267 267.693 210.267 267.488 210.226L262.421 209.213C262.049 209.138 261.718 208.935 261.488 208.642C261.259 208.349 261.146 207.985 261.17 207.618L264.936 153.668L290.477 150.996L286.682 211.181C286.657 211.568 286.481 211.931 286.191 212.197C285.9 212.463 285.515 212.612 285.116 212.613C284.96 212.613 284.805 212.59 284.656 212.546Z" fill="#2F2E41"/>
<path d="M284.632 106.687C289.368 106.687 293.208 102.964 293.208 98.37C293.208 93.7765 289.368 90.0527 284.632 90.0527C279.895 90.0527 276.055 93.7765 276.055 98.37C276.055 102.964 279.895 106.687 284.632 106.687Z" fill="#FFB8B8"/>
<path d="M264.897 153.986L270.435 120.172C270.729 118.374 271.415 116.658 272.447 115.137C273.479 113.616 274.833 112.326 276.419 111.352C278.005 110.378 279.786 109.743 281.645 109.489C283.504 109.235 285.397 109.367 287.199 109.878C290.349 110.761 293.047 112.752 294.764 115.461C296.482 118.17 297.097 121.403 296.488 124.528L290.694 154.725L264.897 153.986Z" fill="#6C1FE8"/>
<path d="M286.999 160.035C287.428 159.761 287.789 159.399 288.057 158.975C288.326 158.55 288.495 158.074 288.553 157.58C288.612 157.085 288.557 156.584 288.394 156.112C288.231 155.64 287.963 155.208 287.609 154.847L293.335 144.095L286.887 144.763L282.438 154.871C281.853 155.487 281.521 156.29 281.505 157.128C281.489 157.966 281.791 158.781 282.353 159.418C282.916 160.054 283.699 160.469 284.555 160.583C285.412 160.696 286.281 160.502 286.999 160.035Z" fill="#FFB8B8"/>
<path d="M288.225 152.951C287.909 152.908 287.613 152.772 287.378 152.562L285.187 150.599C284.951 150.386 284.787 150.107 284.719 149.801C284.651 149.495 284.681 149.176 284.806 148.887L289.184 138.823L288.563 118.939C288.652 118.299 288.871 117.683 289.206 117.126C289.541 116.569 289.985 116.081 290.515 115.69C291.044 115.3 291.648 115.014 292.291 114.85C292.934 114.686 293.605 114.646 294.264 114.734C294.923 114.821 295.558 115.033 296.132 115.358C296.707 115.684 297.209 116.115 297.612 116.629C298.014 117.143 298.308 117.729 298.476 118.352C298.645 118.976 298.685 119.627 298.595 120.266L299.657 132.765C299.98 136.559 298.87 140.338 296.536 143.398L289.708 152.349C289.577 152.521 289.409 152.664 289.217 152.769C289.025 152.874 288.812 152.939 288.592 152.959C288.47 152.971 288.347 152.968 288.225 152.951Z" fill="#6C1FE8"/>
<path d="M235.24 93.8383C235.333 94.3278 235.536 94.7915 235.835 95.1967C236.133 95.6019 236.519 95.9388 236.966 96.1836C237.413 96.4284 237.91 96.5751 238.422 96.6135C238.934 96.6519 239.448 96.581 239.929 96.4058L247.906 105.711L249.787 99.6928L241.923 91.7791C241.566 91.0158 240.932 90.406 240.143 90.0652C239.353 89.7245 238.462 89.6765 237.638 89.9303C236.814 90.1841 236.115 90.7222 235.673 91.4424C235.231 92.1627 235.077 93.0152 235.24 93.8383Z" fill="#FFB8B8"/>
<path d="M241.489 97.6954C241.654 97.4294 241.898 97.2185 242.19 97.0906L244.908 95.8997C245.203 95.7715 245.531 95.734 245.848 95.7925C246.165 95.851 246.456 96.0025 246.682 96.2266L254.531 104.06L273.656 111.258C274.228 111.587 274.728 112.022 275.127 112.539C275.526 113.055 275.816 113.642 275.981 114.268C276.145 114.893 276.181 115.543 276.086 116.182C275.991 116.82 275.767 117.434 275.428 117.989C275.088 118.544 274.639 119.028 274.106 119.414C273.573 119.8 272.966 120.081 272.322 120.24C271.677 120.398 271.006 120.432 270.348 120.34C269.689 120.247 269.056 120.029 268.485 119.699L256.201 115.774C252.472 114.583 249.317 112.119 247.321 108.841L241.484 99.2542C241.371 99.0699 241.301 98.8647 241.276 98.652C241.251 98.4393 241.272 98.2238 241.339 98.0197C241.375 97.9062 241.426 97.7973 241.489 97.6954Z" fill="#6C1FE8"/>
<path opacity="0.1" d="M291.588 127.21L291.239 138.046L284.806 148.887L290.178 136.806L291.588 127.21Z" fill="black"/>
<path d="M283.649 99.9332C283.11 100.001 282.564 99.8771 282.113 99.5842C281.661 99.2914 281.335 98.8496 281.194 98.3408C281.058 97.7553 280.76 97.2167 280.332 96.7828C279.905 96.3489 279.364 96.036 278.767 95.8777C277.193 95.5291 275.27 96.2473 274.117 95.0913C273.871 94.8274 273.692 94.5104 273.596 94.1664C273.501 93.8224 273.491 93.4613 273.567 93.1129C273.78 91.9895 274.608 91.1409 275.51 90.4622C277.408 89.0405 279.704 88.2082 282.098 88.0745C283.337 88.0398 284.577 88.0996 285.807 88.2535C287.094 88.3322 288.368 88.5579 289.601 88.9258C291.005 89.4398 292.254 90.2889 293.23 91.3945C294.207 92.5002 294.88 93.8268 295.189 95.2516C295.47 96.6809 295.427 98.1526 295.062 99.5639C294.696 100.975 294.018 102.292 293.073 103.423C291.943 104.788 290.485 105.865 288.827 106.558C288.432 106.739 287.979 106.762 287.568 106.62C286.535 106.222 286.704 104.982 287.174 104.154C287.678 103.269 288.454 102.411 288.048 101.334C287.845 100.834 287.455 100.427 286.956 100.194C285.93 99.6862 284.781 99.8063 283.678 99.9299L283.649 99.9332Z" fill="#2F2E41"/>
<path d="M232.374 104.63H126.215C124.687 104.628 123.223 104.039 122.143 102.992C121.062 101.944 120.455 100.524 120.453 99.0424V77.0309C120.455 75.5495 121.062 74.1293 122.143 73.0818C123.223 72.0343 124.687 71.445 126.215 71.4434H232.374C233.901 71.4451 235.366 72.0343 236.446 73.0818C237.526 74.1293 238.134 75.5495 238.136 77.0309V99.0424C238.134 100.524 237.526 101.944 236.446 102.991C235.366 104.039 233.901 104.628 232.374 104.63Z" fill="white"/>
<path d="M232.374 104.799H126.215C124.641 104.797 123.132 104.19 122.019 103.111C120.906 102.032 120.28 100.569 120.278 99.0423V77.0308C120.28 75.5045 120.906 74.0412 122.019 72.962C123.132 71.8827 124.641 71.2756 126.215 71.2739H232.374C233.948 71.2756 235.457 71.8827 236.57 72.962C237.682 74.0412 238.308 75.5045 238.31 77.0308V99.0423C238.308 100.569 237.682 102.032 236.57 103.111C235.457 104.19 233.948 104.797 232.374 104.799ZM126.215 71.9512C124.826 71.9527 123.495 72.4884 122.513 73.4407C121.531 74.3929 120.978 75.6841 120.977 77.0308V99.0423C120.978 100.389 121.531 101.68 122.513 102.632C123.495 103.585 124.826 104.12 126.215 104.122H232.374C233.762 104.12 235.094 103.585 236.076 102.632C237.058 101.68 237.61 100.389 237.612 99.0423V77.0308C237.61 75.6841 237.058 74.3929 236.076 73.4407C235.094 72.4884 233.762 71.9527 232.374 71.9512H126.215Z" fill="#3F3D56"/>
<path d="M219.453 99.2117H139.136C137.608 99.21 136.143 98.6208 135.063 97.5733C133.983 96.5258 133.375 95.1056 133.374 93.6242V82.1105C133.375 80.6291 133.983 79.2089 135.063 78.1613C136.143 77.1138 137.608 76.5246 139.136 76.5229H219.453C220.981 76.5246 222.445 77.1138 223.525 78.1613C224.606 79.2089 225.213 80.6291 225.215 82.1105V93.6242C225.213 95.1056 224.606 96.5258 223.525 97.5733C222.445 98.6208 220.981 99.21 219.453 99.2117Z" fill="#F2F2F2"/>
<path d="M156.42 93.0058C160.225 93.0058 163.31 90.0141 163.31 86.3237C163.31 82.6333 160.225 79.6416 156.42 79.6416C152.614 79.6416 149.529 82.6333 149.529 86.3237C149.529 90.0141 152.614 93.0058 156.42 93.0058Z" fill="#FF6584"/>
<path d="M214.462 98.5376L204.736 90.6271L195.177 82.8532C194.925 82.6481 194.606 82.5359 194.277 82.5365C193.948 82.5372 193.629 82.6505 193.378 82.8566L183.85 90.6662L181.523 92.5738L178.014 89.72L167.351 81.0472C167.098 80.842 166.779 80.7299 166.45 80.7305C166.121 80.7311 165.803 80.8444 165.551 81.0505L154.922 89.7631L144.126 98.6129C144.071 98.6577 144.032 98.7178 144.014 98.7849C143.995 98.8521 143.999 98.9231 144.023 98.9883C144.048 99.0535 144.093 99.1097 144.151 99.1494C144.21 99.1891 144.28 99.2103 144.352 99.2102L166.487 99.1688L173.493 99.1557L173.425 99.2119L194.31 99.1729L214.238 99.1357C214.31 99.1356 214.38 99.1141 214.438 99.0742C214.497 99.0343 214.541 98.9778 214.566 98.9125C214.59 98.8473 214.593 98.7763 214.575 98.7092C214.556 98.6421 214.517 98.5822 214.462 98.5376Z" fill="#3F3D56"/>
<path d="M305.651 224H238.603C238.51 224 238.422 223.964 238.356 223.901C238.291 223.837 238.254 223.751 238.254 223.661C238.254 223.572 238.291 223.485 238.356 223.422C238.422 223.358 238.51 223.323 238.603 223.323H305.651C305.743 223.323 305.832 223.358 305.898 223.422C305.963 223.485 306 223.572 306 223.661C306 223.751 305.963 223.837 305.898 223.901C305.832 223.964 305.743 224 305.651 224Z" fill="#CCCCCC"/>
<path d="M210.941 44.6706C210.662 44.2311 210.293 43.8513 209.858 43.5544C209.423 43.2574 208.93 43.0496 208.409 42.9435C208.218 42.9046 208.024 42.8809 207.829 42.8724L181.223 19.8044C180.7 19.2835 180.003 18.9605 179.257 18.8934C179.11 18.877 178.961 18.8725 178.813 18.8799C178.2 18.907 177.607 19.1069 177.109 19.4552C176.61 19.8036 176.227 20.2852 176.006 20.8413C175.785 21.3975 175.736 22.0039 175.865 22.5865C175.994 23.1692 176.296 23.7027 176.732 24.122L186.919 32.7336L203.646 46.8717C203.659 47.138 203.7 47.4023 203.768 47.6608C203.968 48.4095 204.398 49.0815 205.001 49.5877C205.604 50.0939 206.352 50.4104 207.145 50.4952C207.868 50.5771 208.6 50.4597 209.257 50.1565C209.779 49.9201 210.241 49.577 210.612 49.1508C210.651 49.1068 210.686 49.0661 210.721 49.0187C211.209 48.4016 211.491 47.6548 211.531 46.878C211.57 46.1011 211.364 45.331 210.941 44.6706Z" fill="#FFB8B8"/>
<path d="M165.432 66.9023L165.184 57.1292L164.974 49.0188L164.831 43.3432L164.548 32.2799C164.492 31.6876 164.26 31.1238 163.879 30.6576C163.498 30.1913 162.986 29.8426 162.404 29.654C161.822 29.4655 161.196 29.4453 160.603 29.5959C160.01 29.7465 159.474 30.0613 159.062 30.5021C158.965 30.6027 158.878 30.7115 158.8 30.8271C158.37 31.4243 158.177 32.1517 158.256 32.8759L158.877 49.0188L159.188 57.1292L159.586 67.4746C159.471 67.6266 159.367 67.7861 159.275 67.9521C159.027 68.4087 158.877 68.9095 158.834 69.4241C158.792 69.9388 158.857 70.4564 159.027 70.9456C159.205 71.4587 159.492 71.9295 159.871 72.327C160.25 72.7245 160.711 73.0397 161.224 73.2518C161.738 73.4639 162.291 73.5681 162.849 73.5576C163.407 73.5471 163.957 73.4221 164.461 73.1908C165.047 72.9221 165.556 72.5176 165.942 72.0131C166.329 71.5085 166.581 70.9194 166.677 70.2978C166.773 69.6762 166.71 69.0412 166.492 68.449C166.275 67.8568 165.911 67.3256 165.432 66.9023Z" fill="#FFB8B8"/>
<path d="M189.388 39.2186L186.919 32.7337L182.924 22.2291C182.635 21.4648 182.173 20.7732 181.572 20.2058C180.97 19.6383 180.245 19.2095 179.449 18.9511C179.386 18.9308 179.32 18.9104 179.257 18.8935C178.486 18.6666 177.674 18.6042 176.876 18.7106C176.078 18.817 175.313 19.0896 174.634 19.5098L161.179 27.7861C159.946 28.5424 159.065 29.7335 158.722 31.1078C158.379 32.4822 158.6 33.9322 159.338 35.1515C161.021 37.973 162.854 40.7073 164.831 43.3432C166.399 45.4123 169.319 45.6324 169.825 49.0187H179.746L189.789 40.2751L189.388 39.2186Z" fill="#CCCCCC"/>
<path d="M35.3274 118.474C39.7963 118.474 43.4191 114.961 43.4191 110.627C43.4191 106.293 39.7963 102.78 35.3274 102.78C30.8585 102.78 27.2357 106.293 27.2357 110.627C27.2357 114.961 30.8585 118.474 35.3274 118.474Z" fill="#A0616A"/>
<path d="M55.1926 105.226C55.2723 105.287 55.3496 105.352 55.4244 105.421C55.7962 105.761 56.0897 106.173 56.2858 106.63C56.4819 107.087 56.5762 107.58 56.5625 108.075C56.5487 108.57 56.4272 109.056 56.206 109.503C55.9848 109.949 55.6688 110.345 55.2788 110.665C55.1879 110.739 55.093 110.808 54.9946 110.872L55.5422 128.802C55.5578 129.388 55.3779 129.965 55.029 130.445C54.6802 130.924 54.1812 131.283 53.6059 131.466L53.5725 131.473L38.5606 133.023C38.1524 133.065 37.7398 133.028 37.3464 132.915C36.9529 132.801 36.5866 132.613 36.2685 132.362C35.9504 132.11 35.6868 131.8 35.4929 131.45C35.2991 131.099 35.1788 130.714 35.1391 130.318C35.0994 129.922 35.141 129.522 35.2615 129.142C35.3821 128.761 35.5791 128.408 35.8413 128.101C36.1035 127.795 36.4257 127.542 36.7892 127.358C37.1527 127.173 37.5503 127.06 37.9592 127.025L48.6604 126.111L50.511 110.584C50.39 110.48 50.2766 110.368 50.1718 110.249C49.5915 109.583 49.2872 108.731 49.3179 107.86C49.3486 106.989 49.7121 106.159 50.3378 105.533C50.9636 104.907 51.8069 104.529 52.7041 104.472C53.6012 104.415 54.4881 104.684 55.1926 105.226Z" fill="#A0616A"/>
<path d="M48.6543 219.835H52.6936L54.6149 204.728H48.6536L48.6543 219.835Z" fill="#A0616A"/>
<path d="M47.6242 218.556L55.5784 218.556C56.2441 218.556 56.9036 218.683 57.5186 218.93C58.1336 219.177 58.6924 219.539 59.1632 219.996C59.6339 220.452 60.0073 220.994 60.262 221.591C60.5167 222.187 60.6479 222.826 60.6478 223.472V223.632L47.6244 223.632L47.6242 218.556Z" fill="#2F2E41"/>
<path d="M8.50876 214.42L11.9792 216.423L21.6009 204.396L16.4787 201.438L8.50876 214.42Z" fill="#A0616A"/>
<path d="M8.29818 212.81L15.1327 216.756C15.7047 217.086 16.2043 217.523 16.6024 218.04C17.0005 218.558 17.2896 219.146 17.4532 219.772C17.6168 220.397 17.6518 221.048 17.556 221.687C17.4602 222.326 17.2356 222.94 16.895 223.495L16.8108 223.632L5.62061 217.171L8.29818 212.81Z" fill="#2F2E41"/>
<path d="M53.6465 214.499H49.1237C48.7575 214.5 48.404 214.368 48.1317 214.131C47.8594 213.893 47.6876 213.566 47.6495 213.213L43.0899 171.65C43.0784 171.545 43.0317 171.447 42.957 171.371C42.8824 171.294 42.7839 171.244 42.6767 171.227C42.5696 171.211 42.4598 171.229 42.3642 171.278C42.2687 171.328 42.1927 171.407 42.148 171.503L33.9223 189.166L19.3591 212.194C19.1706 212.489 18.8788 212.709 18.5371 212.813C18.1953 212.916 17.8265 212.897 17.4982 212.758L11.6804 210.276C11.488 210.194 11.3158 210.073 11.1753 209.922C11.0347 209.77 10.929 209.591 10.8651 209.397C10.8012 209.203 10.7806 208.998 10.8047 208.795C10.8288 208.593 10.897 208.398 11.0047 208.223L24.3923 186.485L28.4981 168.169C27.2068 160.227 32.7428 148.418 32.7989 148.299L32.8263 148.242L48.0753 142.462L48.1518 142.553C54.1655 161.69 57.83 182.286 55.1243 213.182C55.0909 213.54 54.9211 213.874 54.6478 214.117C54.3746 214.361 54.0176 214.497 53.6465 214.499Z" fill="#2F2E41"/>
<path d="M32.212 150.177L32.141 150.032C32.107 149.963 28.7163 143.028 26.1025 135.616C25.6001 134.183 25.4102 132.664 25.5448 131.156C25.6794 129.647 26.1355 128.183 26.8842 126.854C27.6427 125.512 28.6803 124.338 29.9314 123.405C31.1825 122.472 32.6197 121.801 34.1521 121.435C36.8124 120.816 39.6131 121.145 42.0442 122.362C44.4753 123.578 46.3748 125.601 47.3967 128.062C49.4701 133.09 48.8093 138.456 48.1874 142.676L48.1751 142.761L48.0958 142.798L32.212 150.177Z" fill="#3F3D56"/>
<path d="M45.1383 106.195H32.2897V100.763C35.1098 99.6768 37.8695 98.7528 39.5376 100.763C41.023 100.763 42.4476 101.336 43.4979 102.354C44.5482 103.373 45.1383 104.754 45.1383 106.195Z" fill="#2F2E41"/>
<path d="M31.5783 99.8052C23.8972 99.8052 21.7472 109.142 21.7472 114.409C21.7472 117.347 23.1171 118.397 25.2698 118.753L26.0301 114.821L27.8107 118.922C28.4154 118.925 29.0506 118.914 29.7092 118.902L30.313 117.696L31.6592 118.88C37.0513 118.888 41.4093 119.65 41.4093 114.409C41.4093 109.142 39.5238 99.8052 31.5783 99.8052Z" fill="#2F2E41"/>
<path d="M67.3969 224H0.349207C0.256591 224 0.167769 223.964 0.10228 223.901C0.0367911 223.837 0 223.751 0 223.661C0 223.572 0.0367911 223.485 0.10228 223.422C0.167769 223.358 0.256591 223.323 0.349207 223.323H67.3969C67.4895 223.323 67.5784 223.358 67.6438 223.422C67.7093 223.485 67.7461 223.572 67.7461 223.661C67.7461 223.751 67.7093 223.837 67.6438 223.901C67.5784 223.964 67.4895 224 67.3969 224Z" fill="#CCCCCC"/>
<path d="M68.6576 112.588H53.6417C52.7622 112.587 51.919 112.248 51.2971 111.645C50.6751 111.041 50.3253 110.224 50.3243 109.371V94.8093C50.3253 93.9564 50.6751 93.1387 51.2971 92.5356C51.919 91.9325 52.7622 91.5933 53.6417 91.5923H68.6576C69.5372 91.5933 70.3804 91.9325 71.0023 92.5356C71.6243 93.1387 71.9741 93.9564 71.9751 94.8093V109.371C71.9741 110.224 71.6243 111.041 71.0023 111.645C70.3804 112.248 69.5372 112.587 68.6576 112.588Z" fill="white"/>
<path d="M68.6576 112.588H53.6417C52.7622 112.587 51.919 112.248 51.2971 111.645C50.6751 111.041 50.3253 110.224 50.3243 109.371V94.8093C50.3253 93.9564 50.6751 93.1387 51.2971 92.5356C51.919 91.9325 52.7622 91.5933 53.6417 91.5923H68.6576C69.5372 91.5933 70.3804 91.9325 71.0023 92.5356C71.6243 93.1387 71.9741 93.9564 71.9751 94.8093V109.371C71.9741 110.224 71.6243 111.041 71.0023 111.645C70.3804 112.248 69.5372 112.587 68.6576 112.588ZM53.6417 92.2696C52.9474 92.2703 52.2817 92.5381 51.7907 93.0143C51.2997 93.4904 51.0235 94.136 51.0227 94.8093V109.371C51.0235 110.044 51.2997 110.69 51.7907 111.166C52.2817 111.642 52.9474 111.91 53.6417 111.911H68.6576C69.352 111.91 70.0177 111.642 70.5087 111.166C70.9997 110.69 71.2759 110.044 71.2767 109.371V94.8093C71.2759 94.136 70.9997 93.4904 70.5087 93.0143C70.0177 92.5381 69.352 92.2703 68.6576 92.2696H53.6417Z" fill="#3F3D56"/>
<path d="M66.0386 106.662H56.2608C55.983 106.661 55.7167 106.554 55.5203 106.364C55.3239 106.173 55.2135 105.915 55.2132 105.646V98.5345C55.2135 98.2651 55.3239 98.0069 55.5203 97.8164C55.7167 97.626 55.983 97.5189 56.2608 97.5186H59.0133C59.1924 97.5179 59.3686 97.5621 59.5249 97.6467C59.6812 97.7314 59.8123 97.8537 59.9056 98.0019L60.6733 99.2118H66.0386C66.3163 99.212 66.5826 99.3192 66.779 99.5096C66.9754 99.7001 67.0859 99.9583 67.0862 100.228V105.646C67.0859 105.915 66.9754 106.173 66.779 106.364C66.5826 106.554 66.3163 106.661 66.0386 106.662Z" fill="#6C1FE8"/>
<path d="M65.7205 110.255C65.7694 110.341 65.8145 110.43 65.8559 110.522C66.0626 110.975 66.1683 111.465 66.1661 111.96C66.1639 112.456 66.0538 112.945 65.843 113.396C65.6323 113.847 65.3256 114.25 64.9431 114.578C64.5606 114.906 64.1109 115.152 63.6235 115.3C63.5101 115.334 63.3949 115.362 63.2785 115.384L56.6088 132.115C56.3883 132.662 55.9919 133.125 55.4784 133.436C54.9649 133.747 54.3616 133.889 53.7582 133.841L53.7247 133.835L39.2687 129.615C38.8756 129.5 38.5099 129.311 38.1927 129.059C37.8755 128.806 37.613 128.495 37.4204 128.144C37.2278 127.792 37.1089 127.407 37.0706 127.011C37.0324 126.614 37.0754 126.215 37.1973 125.835C37.3193 125.455 37.5176 125.102 37.781 124.796C38.0443 124.491 38.3674 124.239 38.7317 124.056C39.0959 123.872 39.494 123.76 39.903 123.727C40.312 123.693 40.7238 123.739 41.1146 123.861L51.343 127.045L59.2617 113.431C59.1917 113.29 59.1321 113.144 59.0832 112.995C58.815 112.162 58.8751 111.263 59.2521 110.472C59.6291 109.68 60.2959 109.053 61.1231 108.712C61.9503 108.37 62.8788 108.339 63.7284 108.624C64.578 108.909 65.288 109.49 65.7205 110.255Z" fill="#A0616A"/>
</g>
<defs>
<clipPath id="clip0_74_248">
<rect width="306" height="224" fill="white"/>
</clipPath>
</defs>
</svg>
